<svg id="Layer_1" data-name="Layer 1" xmlns="http://www.w3.org/2000/svg" viewBox="0 0 220 60"><defs><style>.cls-1{fill:#650db4;}</style></defs><path class="cls-1" d="M19.67,10H40a0,0,0,0,1,0,0v0a6.67,6.67,0,0,1-6.67,6.67H13a0,0,0,0,1,0,0v0A6.67,6.67,0,0,1,19.67,10Z"/><path class="cls-1" d="M13,23.33H33a0,0,0,0,1,0,0v0A6.67,6.67,0,0,1,26.33,30H13a0,0,0,0,1,0,0V23.33A0,0,0,0,1,13,23.33Z"/><path class="cls-1" d="M13,36.67h6.67a0,0,0,0,1,0,0v6.67A6.67,6.67,0,0,1,13,50h0a0,0,0,0,1,0,0V36.67A0,0,0,0,1,13,36.67Z"/><path class="cls-1" d="M54.54,24v4.2h6.4A3.93,3.93,0,0,1,57,32.15H54.54v3.3A4.55,4.55,0,0,1,50,40h0V24.05a4,4,0,0,1,4-4h8.62a4,4,0,0,1-4,4Z"/><path class="cls-1" d="M72.75,33h-.89v7H67.31V20.05h8.17a6.3,6.3,0,0,1,6.71,6.6,5.92,5.92,0,0,1-4.69,6.08L82.65,40H77.36Zm-.89-3.59h2.89a2.59,2.59,0,0,0,2.87-2.63A2.66,2.66,0,0,0,74.87,24h-3Z"/><path class="cls-1" d="M99.4,36h0a4,4,0,0,1-4,4H86.35V20.05H99.14a4,4,0,0,1-4,4H90.89v4.11h7.24a4.08,4.08,0,0,1-4.08,4.08H90.89V36Z"/><path class="cls-1" d="M104.35,32.79V24.6a4.55,4.55,0,0,1,4.55-4.55h0V32.44c0,2.52,1.59,3.51,3.24,3.51s3.21-1,3.21-3.51V24.6a4.55,4.55,0,0,1,4.55-4.55h0V32.79c0,4.6-3.65,7.47-7.76,7.47S104.35,37.39,104.35,32.79Z"/><path class="cls-1" d="M149.46,20.05l-6.78,20h-3.53l-2.66-10.13L133.91,40h-3.56l-6.71-19.95h4.89L132.2,32l2.46-9.09h3.74L140.83,32l3.68-12Z"/><path class="cls-1" d="M151.72,30a10.18,10.18,0,1,1,10.19,10.25A10.16,10.16,0,0,1,151.72,30Zm15.77,0a5.6,5.6,0,0,0-5.61-5.93c-3.36,0-5.59,2.6-5.59,5.93s2.23,6,5.59,6A5.63,5.63,0,0,0,167.49,30Z"/><path class="cls-1" d="M182.38,33h-.9v7h-4.55V20.05h8.17a6.3,6.3,0,0,1,6.71,6.6,5.91,5.91,0,0,1-4.69,6.08L192.28,40H187Zm-.9-3.59h2.89a2.59,2.59,0,0,0,2.87-2.63A2.66,2.66,0,0,0,184.49,24h-3Z"/><path class="cls-1" d="M206,24h-1.3V35.45A4.55,4.55,0,0,1,200.18,40h0V24h-5.27a4,4,0,0,1,4-4H210A4,4,0,0,1,206,24Z"/></svg>