<svg xmlns="http://www.w3.org/2000/svg" xmlns:xlink="http://www.w3.org/1999/xlink" width="500" height="281.25" viewBox="0 0 500 281.25">
  <defs>
    <clipPath id="clip-default_preview">
      <rect width="500" height="281.25"/>
    </clipPath>
  </defs>
  <g id="default_preview" clip-path="url(#clip-default_preview)">
    <rect width="500" height="281.25" fill="#f4f4f4"/>
    <path id="cube-scan" d="M49.77,68.227l17.371-9.988V38.306L49.77,48.294V68.227m-4.343-27.49L62.8,30.793,45.428,20.587,28.057,30.793l17.371,9.945m-21.714,17.5,17.371,9.988V48.294L23.714,38.306V58.239M72.483,26.276a6.513,6.513,0,0,1,3.344,5.732V59.455a6.513,6.513,0,0,1-3.344,5.732L48.685,79a5.61,5.61,0,0,1-6.514,0l-23.8-13.81a6.513,6.513,0,0,1-3.344-5.732V32.009a6.513,6.513,0,0,1,3.344-5.732l23.8-13.81a6.841,6.841,0,0,1,6.514,0Z" transform="translate(204.972 94.359)" fill="#34e7e4"/>
    <path id="cube-scan-2" data-name="cube-scan" d="M69.5,92V83H83V69.5h9V85.25A7.095,7.095,0,0,1,85.25,92H69.5m-45,0H8.75a6.5,6.5,0,0,1-4.68-2.07A6.5,6.5,0,0,1,2,85.25V69.5h9V83H24.5v9m45-90H85.25a6.5,6.5,0,0,1,4.68,2.07A6.5,6.5,0,0,1,92,8.75V24.5H83V11H69.5V2m-45,0v9H11V24.5H2V8.75A6.5,6.5,0,0,1,4.07,4.07,6.5,6.5,0,0,1,8.75,2H24.5" transform="translate(203 94)" opacity="0.08"/>
  </g>
</svg>
