<svg xmlns="http://www.w3.org/2000/svg" xmlns:xlink="http://www.w3.org/1999/xlink" width="200" height="200" viewBox="0 0 200 200">
  <defs>
    <clipPath id="clip-favicon">
      <rect width="200" height="200"/>
    </clipPath>
  </defs>
  <g id="favicon" clip-path="url(#clip-favicon)">
    <rect id="Rechteck_8" data-name="Rechteck 8" width="200" height="200" rx="25" fill="#fff"/>
    <path id="Pfad_1" data-name="Pfad 1" d="M21.712,46.332c10.909,0,20.728-6.294,20.728-17.791,0-9.818-7.637-14.266-16.364-16.868L19.614,9.827c-6.042-1.762-6.462-4.7-6.462-6.126,0-3.86,3.441-6.881,7.972-6.881,5.035,0,7.888,3.189,7.888,7.3H40.677c0-10.993-8.392-17.623-19.3-17.623C10.3-13.5,1.4-6.369,1.4,3.953c0,5.2,2.266,12.84,14.937,16.2l7.049,2.014c4.951,1.511,7.3,3.776,7.3,6.965,0,4.112-3.441,6.965-8.644,6.965-5.371,0-9.4-3.441-9.483-7.553H.9C.9,38.695,9.376,46.332,21.712,46.332ZM64.678,22.079H86.245V11.589H64.678V-2.173H89.266V-12.5H53.013v57.82H90.021V35H64.678Zm61.093,24.252a29.692,29.692,0,0,0,29.455-29.875c0-16.448-13.091-29.959-29.455-29.959C109.323-13.5,96.4.009,96.4,16.457,96.4,32.821,109.323,46.332,125.771,46.332Zm0-10.993c-10.406,0-17.707-8.476-17.707-18.882s7.3-18.966,17.707-18.966c10.322,0,17.707,8.56,17.707,18.966S136.092,35.338,125.771,35.338Z" transform="translate(21.449 118.427)" fill="#4834d4"/>
    <g id="Gruppe_2" data-name="Gruppe 2" transform="translate(-36.694 -37.131)">
      <path id="Differenzmenge_1" data-name="Differenzmenge 1" d="M0,16.04v0A273.033,273.033,0,0,1,45.752,4.173a301.594,301.594,0,0,1,99.989,0,272.865,272.865,0,0,1,45.743,11.865A712.075,712.075,0,0,0,95.747,9.9,711.715,711.715,0,0,0,0,16.04Z" transform="translate(40.948 85.775)" fill="#4834d4"/>
      <g id="Gruppe_3" data-name="Gruppe 3" transform="translate(87.011 67)">
        <path id="Rechteck_3" data-name="Rechteck 3" d="M10,0h9.937a2,2,0,0,1,2,2V38.262a10,10,0,0,1-10,10H2a2,2,0,0,1-2-2V10A10,10,0,0,1,10,0Z" fill="#34e7e4"/>
        <path id="Rechteck_4" data-name="Rechteck 4" d="M2,0h9.937a10,10,0,0,1,10,10V46.262a2,2,0,0,1-2,2H10a10,10,0,0,1-10-10V2A2,2,0,0,1,2,0Z" transform="translate(77.511)" fill="#34e7e4"/>
      </g>
      <path id="Schnittmenge_7" data-name="Schnittmenge 7" d="M77.511,9.11V.007Q88.6,1.03,99.448,2.865V10.2Q88.622,9.5,77.511,9.11ZM0,2.851C7.219,1.631,14.546.68,21.937,0V9.107Q10.834,9.495,0,10.2Z" transform="translate(87.011 87.044)" fill="#fff"/>
    </g>
  </g>
</svg>
