<svg xmlns="http://www.w3.org/2000/svg" xmlns:xlink="http://www.w3.org/1999/xlink" width="200" height="200" viewBox="0 0 200 200">
  <defs>
    <clipPath id="clip-favicon">
      <rect width="200" height="200"/>
    </clipPath>
  </defs>
  <g id="favicon" clip-path="url(#clip-favicon)">
    <rect id="Rechteck_8" data-name="Rechteck 8" width="200" height="200" rx="25" fill="#fff"/>
    <g id="Gruppe_1" data-name="Gruppe 1" transform="translate(-36.694 -43.131)">
      <g id="Gruppe_2" data-name="Gruppe 2" transform="translate(40.948 73)">
        <path id="Schnittmenge_1" data-name="Schnittmenge 1" d="M0,16.04C28.779,5.781,61.311,0,95.747,0s66.967,5.781,95.746,16.04Z" transform="translate(0 18.775)" fill="#4834d4"/>
        <path id="Rechteck_3" data-name="Rechteck 3" d="M21.937,0h0a0,0,0,0,1,0,0V48.262a0,0,0,0,1,0,0H0a0,0,0,0,1,0,0V21.937A21.937,21.937,0,0,1,21.937,0Z" transform="translate(46.063)" fill="#4bcffa"/>
        <path id="Rechteck_4" data-name="Rechteck 4" d="M0,0H0A21.937,21.937,0,0,1,21.937,21.937V48.262a0,0,0,0,1,0,0H0a0,0,0,0,1,0,0V0A0,0,0,0,1,0,0Z" transform="translate(123.575)" fill="#4bcffa"/>
        <path id="Schnittmenge_3" data-name="Schnittmenge 3" d="M77.489,14.751V0Q88.434,1.016,99.014,2.8v11.95ZM0,14.751V2.8Q10.568,1.023,21.524,0V14.751Z" transform="translate(46.239 20.064)" fill="#34e7e4"/>
      </g>
    </g>
    <path id="Pfad_1" data-name="Pfad 1" d="M21.712,46.332c10.909,0,20.728-6.294,20.728-17.791,0-9.818-7.637-14.266-16.364-16.868L19.614,9.827c-6.042-1.762-6.462-4.7-6.462-6.126,0-3.86,3.441-6.881,7.972-6.881,5.035,0,7.888,3.189,7.888,7.3H40.677c0-10.993-8.392-17.623-19.3-17.623C10.3-13.5,1.4-6.369,1.4,3.953c0,5.2,2.266,12.84,14.937,16.2l7.049,2.014c4.951,1.511,7.3,3.776,7.3,6.965,0,4.112-3.441,6.965-8.644,6.965-5.371,0-9.4-3.441-9.483-7.553H.9C.9,38.695,9.376,46.332,21.712,46.332ZM64.678,22.079H86.245V11.589H64.678V-2.173H89.266V-12.5H53.013v57.82H90.021V35H64.678Zm61.093,24.252a29.692,29.692,0,0,0,29.455-29.875c0-16.448-13.091-29.959-29.455-29.959C109.323-13.5,96.4.009,96.4,16.457,96.4,32.821,109.323,46.332,125.771,46.332Zm0-10.993c-10.406,0-17.707-8.476-17.707-18.882s7.3-18.966,17.707-18.966c10.322,0,17.707,8.56,17.707,18.966S136.092,35.338,125.771,35.338Z" transform="translate(21.449 118.427)" fill="#4834d4"/>
  </g>
</svg>
