<svg xmlns="http://www.w3.org/2000/svg" xmlns:xlink="http://www.w3.org/1999/xlink" width="200" height="200" viewBox="0 0 200 200">
  <defs>
    <clipPath id="clip-favicon">
      <rect width="200" height="200"/>
    </clipPath>
  </defs>
  <g id="favicon" clip-path="url(#clip-favicon)">
    <g id="Gruppe_29" data-name="Gruppe 29" transform="translate(-86.874 -3.059)">
      <path id="Differenzmenge_5" data-name="Differenzmenge 5" d="M0,24.449l0,0H0A416.1,416.1,0,0,1,69.738,6.36l.456-.077.019,0V17.474c2.286-.149,4.621-.292,6.936-.427C50.55,18.6,24.594,21.091,0,24.449Zm291.855-.006c-22.424-3.06-46-5.4-70.06-6.961V6.3l.35.058a415.831,415.831,0,0,1,69.71,18.081Zm-103.5-8.624h0c-13.941-.486-28.212-.733-42.413-.733s-28.435.245-42.292.73V1.936C117.631.651,131.859,0,145.942,0c14.129,0,28.4.655,42.416,1.946Z" transform="translate(40.947 95.618)" fill="#4834d4"/>
      <path id="Differenzmenge_4" data-name="Differenzmenge 4" d="M149.583,73.562H128.145a10.011,10.011,0,0,1-10-10V44.438c11.258.394,22.507.954,33.437,1.663V71.563A2,2,0,0,1,149.583,73.562Zm-126.146,0H2a2,2,0,0,1-2-2V46.092c10.972-.709,22.222-1.267,33.438-1.659v19.13A10.011,10.011,0,0,1,23.437,73.562ZM151.582,34.919h0c-10.949-1.854-22.2-3.319-33.437-4.356V2a2,2,0,0,1,2-2h21.438a10.011,10.011,0,0,1,10,10V34.918ZM0,34.9H0V10A10.011,10.011,0,0,1,10,0H31.437a2,2,0,0,1,2,2V30.552C22.208,31.585,10.958,33.046,0,34.9Z" transform="translate(111.16 67)" fill="#4834d4" opacity="0.7"/>
    </g>
  </g>
</svg>
