<svg xmlns="http://www.w3.org/2000/svg" xmlns:xlink="http://www.w3.org/1999/xlink" width="236" height="110" viewBox="0 0 236 110">
  <defs>
    <clipPath id="clip-logo_white">
      <rect width="236" height="110"/>
    </clipPath>
  </defs>
  <g id="logo_white" clip-path="url(#clip-logo_white)">
    <g id="Gruppe_1" data-name="Gruppe 1" transform="translate(-24.85 -72)">
      <path id="Pfad_1" data-name="Pfad 1" d="M12.28,19.217c5.966,0,11.335-3.442,11.335-9.728,0-5.369-4.176-7.8-8.948-9.224L11.133-.745C7.829-1.709,7.6-3.315,7.6-4.095c0-2.111,1.881-3.763,4.359-3.763,2.753,0,4.314,1.744,4.314,3.992h6.379c0-6.011-4.589-9.637-10.554-9.637C6.04-13.5,1.175-9.6,1.175-3.957c0,2.845,1.239,7.021,8.168,8.857L13.2,6c2.707.826,3.992,2.065,3.992,3.809,0,2.249-1.881,3.809-4.727,3.809-2.937,0-5.14-1.881-5.185-4.13H.9C.9,15.041,5.535,19.217,12.28,19.217Zm23.5-13.262H47.569V.219H35.776V-7.307H49.221v-5.644H29.4V18.666H49.634V13.022H35.776ZM69.183,19.217A16.236,16.236,0,0,0,85.29,2.88,16.247,16.247,0,0,0,69.183-13.5,16.179,16.179,0,0,0,53.122,2.88,16.168,16.168,0,0,0,69.183,19.217Zm0-6.011c-5.69,0-9.683-4.635-9.683-10.325S63.493-7.491,69.183-7.491c5.644,0,9.683,4.681,9.683,10.371S74.827,13.205,69.183,13.205Zm50.478-11.38c2.983-1.147,3.992-3.946,3.992-6.7,0-4.956-3.3-8.076-8.535-8.076H103.232V18.666h12.895a8.868,8.868,0,0,0,9.224-8.9C125.351,6.322,123.378,2.651,119.661,1.825Zm-.184-6.287c0,2.707-1.423,4.681-4.268,4.681h-7.8V-9.1h7.663C117.963-9.1,119.477-7.17,119.477-4.462ZM107.408,14.811V3.89h8.076a5.293,5.293,0,0,1,5.69,5.507c0,2.937-2.019,5.415-5.92,5.415ZM141-3.315c-2.845,0-4.91,1.652-6.011,5.415V-2.764h-4.038v21.43h4.038V10.819c0-5.644,1.7-10.279,5.966-10.279a7.418,7.418,0,0,1,3.12.734l.642-3.763A8.092,8.092,0,0,0,141-3.315ZM150.682-8a2.736,2.736,0,0,0,2.845-2.662,2.736,2.736,0,0,0-2.845-2.662,2.724,2.724,0,0,0-2.8,2.662A2.724,2.724,0,0,0,150.682-8ZM152.7,18.666V-2.764h-3.992v21.43ZM176.563.586c-1.423-2.524-4.451-3.9-7.663-3.9-5.874,0-10.692,4.451-10.692,11.243,0,6.746,4.864,11.289,10.738,11.289,3.075,0,6.195-1.468,7.618-3.9v3.35h3.992V-14.42h-3.992Zm-7.3,14.868c-3.9,0-7.021-3.3-7.021-7.572A7.094,7.094,0,0,1,169.267.448a7.336,7.336,0,0,1,7.3,7.434A7.293,7.293,0,0,1,169.267,15.454ZM204.463.586c-1.423-2.478-4.451-3.9-7.663-3.9-5.874,0-10.692,4.451-10.692,11.243,0,6.746,4.864,11.289,10.738,11.289,3.075,0,6.2-1.468,7.618-3.9v.642c0,7.25-2.937,9.912-7.663,9.912a7.222,7.222,0,0,1-6.241-3.763l-3.4,1.79a10.877,10.877,0,0,0,9.637,5.736c7.067,0,11.656-3.809,11.656-13.95V-2.764h-3.992Zm-7.3,14.868c-3.9,0-7.021-3.3-7.021-7.572A7.094,7.094,0,0,1,197.167.448a7.336,7.336,0,0,1,7.3,7.434A7.293,7.293,0,0,1,197.167,15.454Zm38.5-7.572c0-6.792-4.543-11.2-10.646-11.2a10.726,10.726,0,0,0-11.013,11.2c0,6.792,4.91,11.335,11.013,11.335a10.691,10.691,0,0,0,9.82-5.736L231.4,12.1a7.031,7.031,0,0,1-6.241,3.35c-3.671,0-6.424-1.973-7.021-5.782h17.438C235.622,9.075,235.668,8.479,235.668,7.882ZM218.184,6.23A6.4,6.4,0,0,1,225.022.448a6.336,6.336,0,0,1,6.654,5.782Z" transform="translate(24.863 151.985)" fill="#fff"/>
      <g id="Gruppe_2" data-name="Gruppe 2" transform="translate(0 6)">
        <path id="Differenzmenge_5" data-name="Differenzmenge 5" d="M24.849-350.9h0a290.994,290.994,0,0,1,48.769-12.649l.319-.054.013,0v7.829c1.6-.1,3.231-.2,4.851-.3-18.6,1.087-36.753,2.828-53.952,5.176Zm204.105,0c-15.682-2.14-32.167-3.778-49-4.868v-7.819l.245.04a290.807,290.807,0,0,1,48.751,12.644Zm-72.379-6.031h0c-9.75-.34-19.729-.513-29.661-.513s-19.886.172-29.577.51v-9.706c9.777-.9,19.728-1.354,29.577-1.354,9.881,0,19.861.458,29.663,1.361Z" transform="translate(16.098 455.014)" fill="#fff"/>
        <path id="Differenzmenge_4" data-name="Differenzmenge 4" d="M128.858-316.554H117.473a10.011,10.011,0,0,1-10-10v-10.369c7.866.275,15.733.667,23.384,1.163v17.205A2,2,0,0,1,128.858-316.554Zm-90.624,0H26.85a2,2,0,0,1-2-2v-17.211c7.695-.5,15.562-.888,23.384-1.161v10.372A10.011,10.011,0,0,1,38.234-316.554Zm92.624-27.025h0c-7.648-1.3-15.515-2.32-23.382-3.047V-366a2,2,0,0,1,2-2h11.384a10.012,10.012,0,0,1,10,10v14.419ZM24.85-343.595h0V-358a10.012,10.012,0,0,1,10-10H46.234a2,2,0,0,1,2,2v19.365c-7.857.723-15.724,1.745-23.383,3.039Z" transform="translate(65.2 435)" fill="#fff" opacity="0.7"/>
      </g>
    </g>
  </g>
</svg>
