<svg xmlns="http://www.w3.org/2000/svg" xmlns:xlink="http://www.w3.org/1999/xlink" width="236" height="110" viewBox="0 0 236 110">
  <defs>
    <clipPath id="clip-logo">
      <rect width="236" height="110"/>
    </clipPath>
  </defs>
  <g id="logo" clip-path="url(#clip-logo)">
    <g id="Gruppe_1" data-name="Gruppe 1" transform="translate(-24.85 -72)">
      <path id="Pfad_1" data-name="Pfad 1" d="M12.28,19.217c5.966,0,11.335-3.442,11.335-9.728,0-5.369-4.176-7.8-8.948-9.224L11.133-.745C7.829-1.709,7.6-3.315,7.6-4.095c0-2.111,1.881-3.763,4.359-3.763,2.753,0,4.314,1.744,4.314,3.992h6.379c0-6.011-4.589-9.637-10.554-9.637C6.04-13.5,1.175-9.6,1.175-3.957c0,2.845,1.239,7.021,8.168,8.857L13.2,6c2.707.826,3.992,2.065,3.992,3.809,0,2.249-1.881,3.809-4.727,3.809-2.937,0-5.14-1.881-5.185-4.13H.9C.9,15.041,5.535,19.217,12.28,19.217Zm23.5-13.262H47.569V.219H35.776V-7.307H49.221v-5.644H29.4V18.666H49.634V13.022H35.776ZM69.183,19.217A16.236,16.236,0,0,0,85.29,2.88,16.247,16.247,0,0,0,69.183-13.5,16.179,16.179,0,0,0,53.122,2.88,16.168,16.168,0,0,0,69.183,19.217Zm0-6.011c-5.69,0-9.683-4.635-9.683-10.325S63.493-7.491,69.183-7.491c5.644,0,9.683,4.681,9.683,10.371S74.827,13.205,69.183,13.205Zm50.478-11.38c2.983-1.147,3.992-3.946,3.992-6.7,0-4.956-3.3-8.076-8.535-8.076H103.232V18.666h12.895a8.868,8.868,0,0,0,9.224-8.9C125.351,6.322,123.378,2.651,119.661,1.825Zm-.184-6.287c0,2.707-1.423,4.681-4.268,4.681h-7.8V-9.1h7.663C117.963-9.1,119.477-7.17,119.477-4.462ZM107.408,14.811V3.89h8.076a5.293,5.293,0,0,1,5.69,5.507c0,2.937-2.019,5.415-5.92,5.415ZM141-3.315c-2.845,0-4.91,1.652-6.011,5.415V-2.764h-4.038v21.43h4.038V10.819c0-5.644,1.7-10.279,5.966-10.279a7.418,7.418,0,0,1,3.12.734l.642-3.763A8.092,8.092,0,0,0,141-3.315ZM150.682-8a2.736,2.736,0,0,0,2.845-2.662,2.736,2.736,0,0,0-2.845-2.662,2.724,2.724,0,0,0-2.8,2.662A2.724,2.724,0,0,0,150.682-8ZM152.7,18.666V-2.764h-3.992v21.43ZM176.563.586c-1.423-2.524-4.451-3.9-7.663-3.9-5.874,0-10.692,4.451-10.692,11.243,0,6.746,4.864,11.289,10.738,11.289,3.075,0,6.195-1.468,7.618-3.9v3.35h3.992V-14.42h-3.992Zm-7.3,14.868c-3.9,0-7.021-3.3-7.021-7.572A7.094,7.094,0,0,1,169.267.448a7.336,7.336,0,0,1,7.3,7.434A7.293,7.293,0,0,1,169.267,15.454ZM204.463.586c-1.423-2.478-4.451-3.9-7.663-3.9-5.874,0-10.692,4.451-10.692,11.243,0,6.746,4.864,11.289,10.738,11.289,3.075,0,6.2-1.468,7.618-3.9v.642c0,7.25-2.937,9.912-7.663,9.912a7.222,7.222,0,0,1-6.241-3.763l-3.4,1.79a10.877,10.877,0,0,0,9.637,5.736c7.067,0,11.656-3.809,11.656-13.95V-2.764h-3.992Zm-7.3,14.868c-3.9,0-7.021-3.3-7.021-7.572A7.094,7.094,0,0,1,197.167.448a7.336,7.336,0,0,1,7.3,7.434A7.293,7.293,0,0,1,197.167,15.454Zm38.5-7.572c0-6.792-4.543-11.2-10.646-11.2a10.726,10.726,0,0,0-11.013,11.2c0,6.792,4.91,11.335,11.013,11.335a10.691,10.691,0,0,0,9.82-5.736L231.4,12.1a7.031,7.031,0,0,1-6.241,3.35c-3.671,0-6.424-1.973-7.021-5.782h17.438C235.622,9.075,235.668,8.479,235.668,7.882ZM218.184,6.23A6.4,6.4,0,0,1,225.022.448a6.336,6.336,0,0,1,6.654,5.782Z" transform="translate(24.863 151.985)" fill="#4834d4"/>
      <g id="Gruppe_2" data-name="Gruppe 2" transform="translate(0 6)">
        <path id="Schnittmenge_1" data-name="Schnittmenge 1" d="M0,17.1C30.677,6.162,65.354,0,102.062,0s71.384,6.162,102.061,17.1Z" transform="translate(40.948 87.014)" fill="#4834d4"/>
        <path id="Rechteck_3" data-name="Rechteck 3" d="M23.384,0h0a0,0,0,0,1,0,0V51.445a0,0,0,0,1,0,0H0a0,0,0,0,1,0,0V23.384A23.384,23.384,0,0,1,23.384,0Z" transform="translate(90.049 67)" fill="#4bcffa"/>
        <path id="Rechteck_4" data-name="Rechteck 4" d="M0,0H0A23.384,23.384,0,0,1,23.384,23.384V51.445a0,0,0,0,1,0,0H0a0,0,0,0,1,0,0V0A0,0,0,0,1,0,0Z" transform="translate(172.673 67)" fill="#4bcffa"/>
        <path id="Schnittmenge_3" data-name="Schnittmenge 3" d="M82.6,15.725V0q11.667,1.083,22.945,2.987V15.725Zm-82.6,0V2.987Q11.264,1.091,22.944,0V15.725Z" transform="translate(90.237 88.387)" fill="#34e7e4"/>
      </g>
    </g>
  </g>
</svg>
