<svg id="Layer_1" data-name="Layer 1" xmlns="http://www.w3.org/2000/svg" viewBox="0 0 5400 1800"><defs><style>.cls-1{opacity:0.09;}.cls-2{fill:#fff;}</style></defs><g class="cls-1"><path class="cls-2" d="M4668.12,1654.54c85.49-113.61,173.88-231.08,198.22-372.8,11.16-65,16-144.57,20.62-221.54,4.73-78.26,9.62-159.18,21.18-224.94,28-159.4,83.88-288.74,143-425.66,41.74-96.66,84.91-196.61,117.74-308.68,4.92-16.8,10-34,15-50.64s10-33.46,14.89-50.28h-4.17q-7.23,24.65-14.55,49.14c-4.95,16.64-10.07,33.85-15,50.66C5132.3,211.63,5089.18,311.46,5047.49,408,4988.25,545.16,4932.3,674.7,4904.2,834.56c-11.6,66-16.5,147-21.23,225.4-4.65,76.86-9.45,156.33-20.57,221.1-24.18,140.76-112.28,257.85-197.47,371.07l-.66.87c-37.79,50.22-70.18,98.39-100.58,147h4.73c30-47.81,61.89-95.21,99.05-144.59Z"/><path class="cls-2" d="M127.94,80.89c3.79-26.82,5.91-54.29,7.94-80.89h-4c-2,26.44-4.13,53.74-7.89,80.33C109.1,185.42,59.15,260.21,0,331.48v6.07c25.34-30.44,47.48-59.41,66.76-90.66C100.11,192.84,119.55,140.1,127.94,80.89Z"/><path class="cls-2" d="M5023.57,1214.41c3-42.78,4.73-85.15,6.39-126.14,4.56-112.12,8.86-218,37.7-329.74,46.25-179.11,126.86-331.74,204.82-479.34,46.23-87.54,91.44-173.17,127.52-261V7.57c-36.6,90.87-83.29,179.28-131.06,269.75-78.06,147.8-158.78,300.64-205.15,480.21-28.95,112.13-33.26,218.24-37.82,330.58-1.66,41-3.38,83.3-6.39,126-9.62,136.47-65.17,300.22-152.42,449.25Q4826.3,1733.18,4784,1800h4.72q41.46-66,81.85-134.6C4958.16,1515.85,5013.91,1351.47,5023.57,1214.41Z"/><path class="cls-2" d="M0,0V36.82C1.37,24.55,2.51,12.24,3.55,0Z"/><path class="cls-2" d="M5369.1,1486c7.63-81,6.64-170-3.11-280.13-12.62-142.57,2.64-281,34-416.33V770.82C5384.89,833,5374,892.24,5367,950.35c-10.73,88.5-12.35,172.18-4.94,255.83,14.83,167.56,17.64,350-61.55,548.18-5.89,14.74-11.72,29.9-17.72,45.64H5287c5.8-15.21,11.45-29.89,17.15-44.16C5339,1668.77,5360.2,1580.49,5369.1,1486Z"/><path class="cls-2" d="M5189,1094.49c19.31-262.8,116.66-509,210.8-747.06l.25-.63V335.92q-2,5-4,10c-47.14,119.21-95.88,242.48-134.23,366.25-43,138.84-68.15,263.79-76.84,382C5169.76,1301,5098,1601.25,4990.3,1775q-7.87,12.71-15.78,25h4.73q7.24-11.34,14.45-23C5101.76,1602.8,5173.72,1301.78,5189,1094.49Z"/><path class="cls-2" d="M4646.66,1461.79c74.56-99,99.13-230.2,113.33-345.55,9.56-77.69,8.13-143.78,6.75-207.69-3.09-143.08-6-278.23,123.6-504.91,41-71.74,71.29-136.27,92.54-197.26C5008.08,134.07,5021,66.47,5022.22,0h-4c-3.13,159.38-76.23,305.24-131.35,401.65-59.42,103.93-95,194.2-112.05,284.09-15.17,80.06-13.67,149.44-12.08,222.9,1.38,63.77,2.8,129.71-6.72,207.12-14.14,114.81-38.56,245.43-112.55,343.62l-14.58,19.34c-75.4,100-159.45,211.48-228.68,321.28h4.73c68.89-109,152.28-219.59,227.14-318.87Z"/><path class="cls-2" d="M89.4,384.07C132,335.77,176,285.83,226.33,249.29c40.39-29.31,69.91-32,107.27-35.48,12.58-1.16,25.59-2.36,40.45-4.61,23-3.49,51.18-10,64.86-29.81,9.5-13.73,11.55-32.46,6.27-57.24-7.75-36.34-33.47-56-58.35-75.08C370,34.19,352.59,20.87,340.66,2.41c-.53-.8-1-1.61-1.53-2.41h-4.67c.9,1.52,1.84,3.05,2.84,4.59,12.31,19,30,32.57,47.1,45.66,25.42,19.46,49.43,37.83,56.87,72.73,5,23.65,3.19,41.36-5.65,54.14-10,14.45-29.17,23.12-62.17,28.12-14.74,2.24-27.69,3.43-40.22,4.59-38,3.5-68,6.27-109.25,36.22C173.27,282.85,129.11,333,86.4,381.43q-6.59,7.47-13.08,14.8Q34.62,439.94,0,486.33v6.72q35.92-48.51,76.32-94.16Q82.82,391.56,89.4,384.07Z"/><path class="cls-2" d="M17.51,1664.29Q8.81,1654.14,0,1643.9V1650q7.28,8.46,14.47,16.88c38.91,45.44,78.94,92.19,124.71,133.1h6C98.23,1758.55,57.28,1710.75,17.51,1664.29Z"/><path class="cls-2" d="M375.94,391.3c56.33-.76,108.34-7.55,159-20.77,50-13,99-32.45,149.72-59.31,41.81-22.13,64.23-48.92,66.63-79.65,4.11-52.38-49.95-104.54-96-139.07C612.15,60.17,594.83,30.55,589.58,0h-4.19c5.16,31.6,22.8,62.2,67.48,95.7,45.26,33.93,98.39,85,94.43,135.56-2.3,29.27-24,55-64.52,76.43-101.2,53.57-195.85,78.12-306.89,79.61-59.78.8-116.58,18.69-168.83,53.17-46,30.38-89,74-127.89,129.53C47.38,615.48,21.24,664.85,0,712.74v10c21.78-50.26,49-102.51,82.45-150.4C165.35,453.69,264.09,392.8,375.94,391.3Z"/><path class="cls-2" d="M94.39,1500.57C60.55,1461.18,26,1420.88,0,1379.15v7.49c25.67,40.06,58.86,78.71,91.35,116.54s66.19,77,90.32,115.83c37.61,60.42,86.62,121.72,144.43,181h5.67c-58.28-59.42-108.32-121.43-146.7-183.1C160.77,1577.86,127,1538.57,94.39,1500.57Z"/><path class="cls-2" d="M4441.67,1610.1c17.22-26.24,36.62-53.15,57.15-81.64,61.51-85.34,131.22-182.08,151.42-279.69,14-67.73,2.37-158.92-8.9-247.1-9.2-71.92-17.88-139.85-13.35-194.5,10.41-125.44,46.72-202.47,97-309.09q7.86-16.66,16.21-34.5c7.38-15.8,14.94-31.72,22.24-47.12,46.3-97.52,90-189.62,111.69-295.81C4883.61,79,4887.4,39.36,4886.48,0h-3.87c.82,38-2.77,77.46-11.42,119.85-21.56,105.71-65.19,197.61-111.38,294.89-7.31,15.41-14.87,31.33-22.25,47.15q-8.32,17.82-16.21,34.49c-50.44,107-86.88,184.3-97.34,310.46-4.57,55.07,4.14,123.2,13.36,195.34,11.23,87.86,22.84,178.7,9,245.78-20,96.78-89.48,193.14-150.76,278.16-20.56,28.53-40,55.47-57.24,81.78q-17.25,26.28-33.93,51.64c-31.17,47.4-61.58,93.65-91.85,140.46h4.77c29.79-46.06,59.74-91.61,90.42-138.26Q4424.45,1636.33,4441.67,1610.1Z"/><path class="cls-2" d="M4454.48,1469.75c56.12-73.88,114.16-150.28,134.59-230.67,18.7-73.59-1.45-175.86-20.94-274.77-11.6-58.85-22.55-114.45-24.13-159.38-5.39-153.61,54.53-268.23,118-389.57,44.5-85.13,90.52-173.14,113.73-277.42,10.92-49,15.76-94.08,14.1-137.94h-4c1.67,43.59-3.12,88.33-14,137.07-23.1,103.76-69,191.54-113.38,276.43-32.05,61.31-62.32,119.21-84.76,182.73-25.44,72-36.14,138.39-33.67,208.84,1.59,45.25,12.57,101,24.2,160,19.41,98.47,39.47,200.3,21,273-20.23,79.61-78,155.68-133.9,229.24-30.17,39.72-58.67,77.24-81,114.64-44.66,74.81-88.5,147.38-133.19,218h4.73c44.25-70,87.67-141.89,131.9-216C4395.94,1546.81,4424.37,1509.38,4454.48,1469.75Z"/><path class="cls-2" d="M180.33,1387.17c-38.61-54.18-75.09-105.36-93.56-171.31-32.76-116.93-58.08-242.7-21.88-370,30.43-107,85.48-205.22,151-269.36,67.95-66.48,152.59-85.6,242.19-105.84,27.79-6.28,56.52-12.77,84.49-20.76,10.19-2.92,21.33-5.93,33.12-9.12,43.15-11.67,96.85-26.19,144.29-47.13,55.76-24.6,92.21-53.15,111.41-87.28,45.53-80.89.23-149.51-43.59-215.87-19.35-29.31-39.36-59.62-50.49-90L737.2,0H733c.21.61.41,1.2.64,1.82C744.89,32.65,765,63.16,784.51,92.66c43.15,65.36,87.77,133,43.44,211.71-18.77,33.35-54.6,61.34-109.54,85.58-47.17,20.82-100.71,35.3-143.72,46.93-11.81,3.19-23,6.21-33.18,9.13-27.86,8-56.53,14.45-84.27,20.71C414,476.48,369.33,486.58,328,502.37c-46.39,17.72-84,41-114.84,71.23C147.09,638.21,91.66,737,61,844.73c-16.6,58.41-21.67,119.72-15.48,187.4s23.22,134.33,37.36,184.81c18.66,66.62,57,120.47,94.15,172.55,27,37.9,54.94,77.1,75.83,121.57,48.35,102.94,115.89,200,201,288.94h4.92c-82-85.41-151-181.56-202.25-290.64C235.48,1464.56,207.44,1425.22,180.33,1387.17Z"/><path class="cls-2" d="M4226.72,1684c21.58-36.7,61.67-89.65,104.11-145.71,82.67-109.18,176.36-232.93,195.47-312.44,17.21-71.54-3.74-177.83-24-280.62-12.31-62.44-23.94-121.43-25.3-166.3-4.48-147.3,46-243.48,99.42-345.32,37.72-71.87,76.71-146.2,100.52-244.15,17.15-70.55,24.17-131.36,21.75-189.47h-4.14c2.39,58.52-4.88,120.19-21.49,188.53-23.7,97.47-62.58,171.57-100.18,243.23-53.68,102.32-104.39,199-99.88,347.3,1.38,45.2,13,104.34,25.37,167,19.24,97.6,41,208.22,24.05,278.9-18.93,78.7-112.35,202.1-194.77,311-42.52,56.15-82.67,109.2-104.37,146.1-24.89,42.31-47,81.13-66.6,115.39l-1.49,2.62h4.6c.12-.22.25-.43.37-.64C4179.7,1765.12,4201.86,1726.3,4226.72,1684Z"/><path class="cls-2" d="M333.72,1454.3c-22.23-63-45.21-128.23-84-188.84C183.34,1161.82,148.53,1047.38,149,934.52c.44-100.23,36.31-202.88,96-274.59C308.63,583.4,408.86,549.67,505.8,517.06c19.27-6.48,37.47-12.61,55.47-19.09,22.78-8.21,47-15.88,70.44-23.31,76-24.06,154.55-49,215-99.67,24.16-20.26,40.9-41.33,51.19-64.4,9.25-20.76,13.06-42.76,11.64-67.26-2.62-45.5-22.87-92.35-44.3-142-3.14-7.25-6.38-14.75-9.54-22.2-12.45-29.34-16.45-55.06-16-79.17h-4c-.51,24.54,3.57,50.75,16.3,80.73,3.16,7.46,6.41,15,9.54,22.23,21.3,49.27,41.41,95.81,44,140.6,2.89,50-16.63,90.81-61.41,128.36-59.88,50.21-138.07,75-213.68,98.93C607,478.29,582.77,486,559.91,494.21c-18,6.47-36.14,12.58-55.39,19.06-47.82,16.09-97.27,32.72-142.88,55-51.75,25.29-90.92,54.43-119.74,89.08-30.31,36.44-55.16,81.52-71.87,130.36a465.22,465.22,0,0,0-25,146.78c-.49,113.63,34.54,228.82,101.32,333.11,38.56,60.22,61.46,125.19,83.61,188,15.45,43.83,31.42,89.15,52.69,133.17C420.9,1668,473.07,1738.26,531.81,1800h5.52c-59.56-62.12-112.45-133-151.09-212.94C365.07,1543.24,349.13,1498,333.72,1454.3Z"/><path class="cls-2" d="M456.44,1397.09c1.32-42.46,2.69-86.37-12.44-128.66-13.39-37.4-38.4-67.66-62.58-96.93-7.09-8.57-14.41-17.44-21.33-26.35-83.81-107.9-103-236.53-52.76-352.9C364,661.18,532.55,592.83,681.3,532.53c58-23.51,112.73-45.71,157-70,9.74-5.34,19.44-11.18,29.72-17.35,35.48-21.33,72.18-43.38,111.92-45.95,11.24-.73,25.12,2.24,39.82,5.39,29.22,6.25,62.34,13.34,82.72-8.4,12.28-13.09,17-29.82,14.07-49.72-2.49-16.78-10.56-36.33-24-58.09-24.42-39.59-61.83-79.42-89.14-108.51-11.8-12.56-22-23.42-27.88-30.85C933.7,96.16,921,49.34,919.32,0h-3.93a282.34,282.34,0,0,0,2.88,32.4c6.45,42.75,23.66,80.6,54.14,119.13,6,7.57,16.24,18.48,28.1,31.11,27.2,29,64.44,68.63,88.66,107.87,13.14,21.3,21,40.33,23.43,56.57,2.76,18.63-1.63,34.25-13,46.41-18.83,20.09-49.4,13.54-79,7.22-15-3.21-29.13-6.24-40.92-5.47C939,397.87,901.86,420.18,866,441.75c-10.24,6.16-19.92,12-29.58,17.27-44.08,24.19-98.73,46.34-156.6,69.8C530.34,589.41,360.94,658.09,303.66,790.66c-50.87,117.75-31.46,247.85,53.27,356.95,7,9,14.3,17.84,21.4,26.44,24,29,48.75,59,61.9,95.73,14.88,41.57,13.53,85.09,12.21,127.18-.65,20.77-1.31,42.24-.07,63.43,6,101.53,52.14,205.25,137.27,308.28q13.3,16.1,27.15,31.33h6.28c-84.35-92.09-159-209.22-166.71-339.84C455.13,1439.15,455.8,1417.77,456.44,1397.09Z"/><path class="cls-2" d="M4212.68,1582.09c24.46-37.54,58.18-78.23,93.89-121.3,63.34-76.43,128.84-155.46,155.32-231.13,12.56-35.91,15.13-78.85,7.85-131.28-6.41-46.17-19.43-93.76-32-139.77-10.86-39.7-21.12-77.2-26.76-111.93-23.28-143.52,26.24-234.83,83.58-340.56,27.09-49.94,55.1-101.58,77.88-163.14,37.91-102.45,48.23-226.07,29.15-343h-4.05c19.12,116.43,8.89,239.58-28.85,341.59C4546,402.88,4518.06,454.4,4491,504.22c-28.47,52.48-55.35,102-72.17,156.55-18.83,61-22.59,120.31-11.84,186.55,5.67,34.94,15.95,72.54,26.84,112.34,25.51,93.25,51.88,189.68,24.24,268.68-26.24,75-91.5,153.74-154.62,229.89-35.78,43.17-69.58,84-94.17,121.68-33.7,51.71-66.41,106.57-98,159.62q-18,30.18-36.22,60.47h4.67q17.62-29.22,35-58.42C4146.32,1688.56,4179,1633.74,4212.68,1582.09Z"/><path class="cls-2" d="M561.28,1562.08c-22-64-21.39-123.5-20.72-186.5.43-39.3.86-79.93-4.71-121.77-5.72-43-22.25-77.2-39.75-113.4-7.07-14.62-14.38-29.73-21.07-45.7-23.29-55.61-22.7-104-19.51-161.4q.47-8.23.88-16.17c5.08-95.55,8.44-158.67,87.13-226.93,92.15-79.92,211.41-105.43,326.75-130.09,34.61-7.4,68.05-8.77,100.39-10.1,36.19-1.49,70.37-2.89,102.42-12.6,36.08-10.92,64.33-30.81,88.91-62.6,35.12-45.4,44.07-87.72,28.15-133.16-14.1-40.23-45.87-77.63-79.5-117.22-10.23-12-20.8-24.48-30.93-37.11C1030.66,126.23,992.82,62.67,967.86,0h-4.29c25.1,63.52,63.34,127.94,113,189.84,10.17,12.66,20.76,25.13,31,37.19,33.39,39.3,64.92,76.42,78.77,116,15.43,44,6.68,85.16-27.53,129.39C1106.18,540.45,1043.31,543,970.51,546c-32.51,1.34-66.12,2.72-101.06,10.19-115.84,24.77-235.61,50.38-328.54,131-37,32.08-60,65.54-72.36,105.28-11.48,36.85-13.64,77.45-16.15,124.46-.28,5.29-.56,10.67-.87,16.16-3.22,57.95-3.81,106.77,19.81,163.17,6.74,16.07,14.07,31.23,21.15,45.89,17.36,35.9,33.76,69.81,39.4,112.19,5.53,41.56,5.09,82,4.67,121.19-.68,63.37-1.32,123.22,20.94,187.85,15.78,45.82,41.11,92.21,75.3,137.9,25,33.46,54.83,66.56,88.8,98.72H727C653,1730.65,591.55,1650,561.28,1562.08Z"/><path class="cls-2" d="M4276.06,1396.19c56.13-65.94,109.15-128.23,122.92-222.9,12.67-87.12-14.78-188.41-39-277.78-4.63-17.07-9-33.19-13-49-37.73-147.42,22.78-246.31,86.84-351C4480,420,4527.73,342,4539,242.22c7.06-62.6,7.19-115.07.38-165.11A505.9,505.9,0,0,0,4522.67,0h-4.18c22.05,73.3,26.93,149.57,16.52,241.78-11.15,98.84-58.68,176.52-104.64,251.63-32.49,53.1-63.18,103.25-81.81,160.09-21.13,64.44-22.88,126.09-5.5,194,4.06,15.84,8.43,32,13.06,49.06,24.12,89,51.46,189.86,38.9,276.15-13.61,93.53-66.26,155.39-122,220.89-16.34,19.2-33.24,39.05-49.59,60.18-77.68,100.34-185.71,232.51-281.94,344.92-.37.43-.72.87-1.09,1.3h5.24c96-112.18,203.53-243.77,280.95-343.78C4242.88,1435.18,4259.74,1415.36,4276.06,1396.19Z"/><path class="cls-2" d="M715.72,1653c-49.07-82.14-46.29-160.2-43.35-242.84,1.13-31.86,2.3-64.81.63-99.23-2.46-50.43-20.82-95.14-38.58-138.38-21.76-53-42.31-103-36.58-163.13,2.17-22.8,2.91-45.19,3.63-66.85,2.78-83.68,5.18-156,84.77-212.3C772.79,669,903.83,636.37,989.75,627.07c32.87-3.56,60.81-.91,85.46,1.42,13.67,1.3,26.43,2.51,38.58,2.51,39.23,0,72-12.63,107.67-75.77l4.52-8c26.11-46.14,48.65-86,55.75-126.68,7.76-44.51-4.26-86.07-37.81-130.81q-9.21-12.27-18.29-24.28c-61.19-81.07-119-157.64-153.82-259-.74-2.14-1.46-4.3-2.18-6.46h-4.22q1.29,3.9,2.62,7.76c35,102,93,178.8,154.4,260.12q9.08,12,18.29,24.28c71.25,95,33.72,161.32-18.22,253.12l-4.52,8c-45.42,80.44-84,76.78-142.39,71.25-24.84-2.35-53-5-86.27-1.42C902.93,632.44,771.1,665.26,683.93,727c-37.13,26.27-60.22,57.5-72.69,98.26-11.08,36.26-12.39,75.56-13.77,117.17-.71,21.6-1.45,43.93-3.61,66.6-5.82,61.12,15.87,113.94,36.86,165,17.63,42.92,35.86,87.31,38.28,137.06,1.67,34.25.5,67.11-.63,98.88-3,83.26-5.76,161.89,43.91,245,29.55,49.45,67.63,97.43,115.16,145h5.65C784.47,1751.78,745.67,1703.12,715.72,1653Z"/><path class="cls-2" d="M3951.8,1647.25c30.54-35,63.14-69.56,94.66-103,56.21-59.67,114.34-121.38,163.6-188,37.73-51,61.86-92.54,78.25-134.64,18.64-47.86,27.12-96.35,26.69-152.6-.43-56-15.42-107.24-29.91-156.81-15.63-53.43-31.79-108.69-29.09-169.09,4.23-94.67,62.25-196,113.45-285.34,16-28,31.15-54.39,44-79.46,26.17-50.94,41.35-102.3,46.41-157,4.79-51.82.34-105.37-13.6-163.71-4.79-20-10.09-39.15-16-57.58h-4.17c5.93,18.48,11.33,37.9,16.26,58.51,28,117,17.33,221-32.48,318-12.84,25-27.95,51.37-43.94,79.3-51.42,89.77-109.7,191.52-114,287.15-2.73,61.06,13.53,116.64,29.25,170.4,14.42,49.3,29.33,100.28,29.75,155.71.9,118.68-39.18,197-104.16,284.83-49.12,66.42-107.16,128-163.29,187.63-31.55,33.49-64.17,68.12-94.76,103.14-47,53.76-96.86,107.79-151.64,155.38h6.09C3856.82,1753,3905.73,1700,3951.8,1647.25Z"/><path class="cls-2" d="M4069.26,1436.83c46.57-52.55,84.4-104.54,112.44-154.5,32.14-57.27,52.7-114.09,61.1-168.9,11.24-73.33-6-142.33-22.75-209.07-11.62-46.37-23.63-94.32-26.12-143.61-4.79-94.5,47.67-175.75,98.4-254.33,14.06-21.77,28.6-44.29,41.4-66.42,61.63-106.51,80-221,54.63-340.29A577,577,0,0,0,4357.13,0h-4.07c52.29,124.78,69.75,278.08-22.79,438-12.76,22-27.27,44.52-41.3,66.25-51.08,79.11-103.89,160.92-99,256.71,2.52,49.67,14.58,97.82,26.24,144.38,16.61,66.34,33.8,134.95,22.68,207.49-37.36,243.7-304.77,458.2-448.44,573.43-54.06,43.37-113.56,79.53-172.5,113.74h8c57.13-33.27,114.6-68.54,167.06-110.61C3887.31,1613.67,3986.12,1530.67,4069.26,1436.83Z"/><path class="cls-2" d="M781.67,1651.89c-60.49-91.23-60.94-187.25-61.41-288.91-.12-25.91-.24-52.71-1.41-79.52-1.05-24.17-4.49-48.85-7.81-72.72-4.87-35-9.92-71.27-7.52-106.52,1.76-25.78,10.05-48.65,18.07-70.76,7-19.35,14.28-39.36,17.26-61.4,3.5-25.92,4.15-48.93,4.73-69.23,1-33.92,1.72-60.7,14.88-83.34,14.09-24.24,41.83-42.29,89.95-58.54,123.7-41.78,171.61-3.8,258.58,65.14,19.57,15.51,32.12,23.08,46.42,21.37,13.58-1.62,27.72-11.27,53.38-28.77l5.2-3.55c54.21-36.92,54.41-50.84,55.17-102.63.08-5.87.18-12.53.37-19.66,1.29-48.56,21.32-95.19,40.68-140.28,23.71-55.19,48.22-112.26,38.33-173.1-9.57-58.81-55.09-110.56-99.12-160.61-35.21-40-71.61-81.41-88.55-125.58C1149.41,68.63,1138.14,36.91,1127,0h-4.26c10.79,35.64,22,67.58,32.44,94.72,17.2,44.83,53.85,86.5,89.29,126.79,43.65,49.62,88.79,100.93,98.17,158.6,9.7,59.69-14.57,116.22-38,170.88-19.52,45.44-39.7,92.43-41,141.76-.19,7.15-.29,13.82-.37,19.7-.73,50.15-.93,63.63-53.42,99.38l-5.21,3.55c-49.82,34-56.22,38.36-95,7.58-42.28-33.52-78.8-62.47-118.69-75.54-40.32-13.2-84.63-10.2-143.67,9.74C798,773.74,769.62,792.35,755,817.48c-13.67,23.52-14.44,50.75-15.42,85.23-.58,20.21-1.23,43.1-4.7,68.81-2.92,21.62-10.1,41.42-17,60.57-8.11,22.38-16.5,45.52-18.3,71.86-2.42,35.67,2.65,72.1,7.55,107.34,3.31,23.78,6.73,48.37,7.77,72.34,1.17,26.73,1.29,53.49,1.41,79.37.47,102.27.92,198.87,62.07,291.1,36.93,55.7,75.91,103.07,120.54,145.9h5.79C859,1756.62,819.25,1708.58,781.67,1651.89Z"/><path class="cls-2" d="M789.33,1533.8c-35.23-85.38-27.43-168.12-19.18-255.71,2.63-28,5.36-56.89,6.58-85.93,4.47-105.88,26.63-180.31,79.07-265.45,23.31-37.84,49.07-54.13,81.11-51.25,29.21,2.62,61.36,20.9,95.4,40.26q5.14,2.92,10.38,5.89c34.43,19.45,59.72,28.5,81.4,28.49a72.13,72.13,0,0,0,21.47-3.2c26.11-8,48.79-31.37,80.17-63.66q5.26-5.4,10.89-11.17c14.73-15.06,45.51-26.58,78.1-38.79,47.07-17.62,95.74-35.84,105.29-67.86,4.47-15,0-31.31-13.6-49.89-12.19-16.62-23.26-26-32.15-33.61-17.7-15.07-27.45-23.37-26.42-68.18.69-29.73,9.11-62.87,17.25-94.92,7.5-29.49,15.24-60,16.91-87.7,5.59-93.21-41.77-149.81-91.91-209.74-26.92-32.17-54.76-65.44-74.29-105.26A864,864,0,0,1,1168.6,0h-4.2a869.85,869.85,0,0,0,47.8,117.88C1232,158.13,1260,191.59,1287,224c49.61,59.3,96.48,115.31,91,206.93-1.64,27.34-9.34,57.65-16.79,87-8.19,32.26-16.67,65.62-17.37,95.81-1.07,46.72,9.8,56,27.82,71.31,8.74,7.44,19.61,16.7,31.52,32.94,12.84,17.5,17.09,32.67,13,46.38-9,30.11-56.7,48-102.85,65.26-33,12.36-64.21,24-79.56,39.73q-5.64,5.78-10.89,11.18c-63.17,65-86.81,89.31-178.21,37.68q-5.23-3-10.38-5.89C965,872.86,905.22,838.84,852.4,924.61c-27.67,44.92-46.37,85.78-58.87,128.6-11.92,40.84-18.52,84.94-20.79,138.78-1.22,28.93-3.94,57.8-6.57,85.72-8.31,88.1-16.15,171.32,19.46,257.61C830.7,1644.58,892.05,1733.6,968,1800h6.1c-.58-.51-1.18-1-1.77-1.51C896.07,1732.35,834.5,1643.29,789.33,1533.8Z"/><path class="cls-2" d="M4086,1325.23c38-48.61,64.14-97.12,80-148.31,17.78-57.5,22.16-116.83,13.39-181.41-4.7-34.62-12.23-68.59-19.51-101.43-19.73-88.94-38.35-172.94-2.83-264.51,19.14-49.33,48.24-94.37,76.38-137.93,21.93-33.94,44.6-69,62.5-106,25.7-53.13,38.22-111,37.19-171.91-.93-55.44-13-113.75-36-173.3a433.29,433.29,0,0,0-18-40.41h-4.5a432.1,432.1,0,0,1,18.78,41.84c48.35,125.53,48,240.61-1.09,342-17.79,36.77-40.4,71.76-62.26,105.59-28.25,43.73-57.46,88.94-76.74,138.65-36,92.71-17.22,177.28,2.64,266.82,7.27,32.77,14.78,66.65,19.46,101.11,36.15,266.35-166.14,419.05-361.77,566.72-119.23,90-220.69,164.85-327.73,237.23H3493c105.32-71.4,205.55-145.37,323-234C3914.1,1491.92,4015.52,1415.36,4086,1325.23Z"/><path class="cls-2" d="M3666.49,1582.09c120.16-74.95,244.41-152.46,344.08-255.23,62.76-64.71,97.62-130.84,109.71-208.12,11.14-71.17-4.8-138.71-20.22-204-13.2-55.94-26.86-113.78-23.17-173.25,6.05-97.72,53.75-178.67,99.88-257,30.19-51.25,61.42-104.25,80.18-161,21.06-63.69,23.93-125.71,8.77-189.6C4254.07,84.79,4234.37,41.2,4210.11,0h-4.66c24.64,41.52,44.65,85.38,56.38,134.85,33.39,140.74-25.82,241.24-88.51,347.63C4127,561.17,4079,642.54,4072.9,741.22c-3.73,60.06,10,118.2,23.27,174.42,15.33,64.94,31.18,132.09,20.16,202.48-12,76.42-46.48,141.87-108.63,206-99.33,102.42-223.37,179.8-343.32,254.63-29.26,18.25-59.51,37.12-88.77,56-88.53,57-164.22,111.59-229.35,165.33h6.3c64.16-52.64,138.51-106.09,225.22-162C3607,1619.2,3637.25,1600.34,3666.49,1582.09Z"/><path class="cls-2" d="M859.46,1177.69c61.27-101.55,153.93-117.58,261.21-136.13l17.76-3.09c67.69-11.89,123.21-47.26,176.89-81.47,42-26.77,85.43-54.44,135.06-71.45l8.51-2.88c44.31-14.95,111.28-37.54,121.42-89.86,7.91-40.81-22.64-72.29-49.59-100.07-9.57-9.87-18.61-19.18-25.71-28.53-41.06-54.06-51.83-116.56-63.24-182.73-10.17-59-20.68-120-54.78-174-16-25.25-35-48.74-53.42-71.46s-37.6-46.37-53.41-71.56c-28.07-44.69-40.87-93.14-54.44-144.43C1224,13.49,1222.2,6.74,1220.38,0h-4.14c1.91,7.08,3.79,14.17,5.62,21.09,13,49.33,26.52,100.33,54.91,145.54,15.94,25.39,35.13,49.06,53.69,72,18.35,22.63,37.33,46,53.15,71.08,33.67,53.31,44.11,113.9,54.22,172.5,11,63.73,22.34,129.63,64,184.47,7.24,9.54,16.36,18.94,26,28.89,27.55,28.4,56.05,57.77,48.54,96.53-9.7,50-75.34,72.18-118.78,86.83l-8.52,2.89c-50.09,17.16-93.72,45-135.92,71.85-55.81,35.57-108.52,69.16-175.43,80.91q-8.92,1.58-17.75,3.09c-53.23,9.2-103.5,17.9-148.38,37.17-50.41,21.65-87.13,53.69-115.57,100.84-26.55,44-42.67,93.92-47.91,148.34-4.86,50.46-.32,103.48,13.5,157.59C847.89,1584.4,906,1682.66,981,1751.15a717.62,717.62,0,0,0,60,48.85h6.83a716.83,716.83,0,0,1-64.16-51.81C838.42,1615.55,749.65,1359.72,859.46,1177.69Z"/><path class="cls-2" d="M935.4,1632.37c-55.82-90.6-75.37-187.42-55-272.61,17.12-71.76,62.51-132,131.25-174.15,37.17-22.8,77-40.62,115.47-57.86,51.27-23,104.28-46.7,151.28-82.37,42.51-32.26,91.78-57,139.43-81,55.59-27.94,113.08-56.84,159.89-97.74,36.46-31.85,55.56-72,56.76-119.19,1-38.34-9.41-81.62-31.76-132.31-41.5-94.12-88.53-200.79-160.18-292.06q-6.2-7.89-12.24-15.55c-58.9-74.69-105.42-133.69-124-229-5.18-26.61-12.59-52.79-20.9-78.53h-4.2c8.43,26,16,52.46,21.17,79.29,18.73,96.3,65.52,155.63,124.76,230.75q6,7.66,12.23,15.54c71.34,90.87,118.27,197.3,159.67,291.2,48.39,109.76,40.55,190.51-24,246.88C1528.62,904.22,1471.36,933,1416,960.84c-47.81,24-97.24,48.87-140,81.35-46.64,35.39-99.43,59-150.49,81.91-38.62,17.29-78.54,35.17-115.93,58.1-69.67,42.74-115.68,103.82-133,176.63-10.31,43.22-10.54,89.42-.68,137.31,9.66,46.94,28.57,93.48,56.2,138.33,36,58.46,91.36,112.7,168.92,165.53h7C1037.89,1753,976.24,1698.67,935.4,1632.37Z"/><path class="cls-2" d="M3364.32,1686.38c75.58-55.41,156.77-106.08,235.29-155.09,128.38-80.13,261.13-163,374-269.28,26.54-25,46.09-51.49,59.77-81,12.23-26.37,19.47-54.59,22.13-86.29,4.94-58.82-6.6-118.92-18.82-182.55-17.11-89.1-34.8-181.24-3.54-269.91,18.19-51.59,49.89-96.49,80.56-139.92,21.19-30,43.09-61,60.5-94.12,25.56-48.63,42-98,48.86-146.67,7.46-53,3.38-104.14-12.13-152.16C4198.22,70.11,4177.81,34.15,4154.17,0h-4.87c24.13,34.56,45,70.93,57.8,110.61,37.42,115.91.82,224.8-36.48,295.75-17.28,32.87-39.11,63.78-60.22,93.68-30.82,43.64-62.69,88.78-81.06,140.89-31.62,89.69-13.83,182.37,3.39,272,24.07,125.37,46.81,243.78-61.9,346.18-112.55,106-245.13,188.77-373.34,268.8-78.58,49-159.83,99.76-235.53,155.26-44.43,32.57-85.37,73.45-124.52,116.84h5.4C3281.1,1757.77,3321.09,1718.08,3364.32,1686.38Z"/><path class="cls-2" d="M3273.11,1675.48c97.81-73.47,202.18-140,292.33-196.5,86.08-54,166.52-117.78,244.31-179.46,16.64-13.2,33.85-26.84,50.88-40.2,80.76-63.38,141.8-120.8,132.63-233.28-3.15-38.65-10.15-76.86-16.92-113.8-14.88-81.17-28.93-157.84-6.17-240.51,18-65.33,53.51-117.19,91.12-172.09,11.88-17.32,24.15-35.24,35.75-53.52,28.91-45.54,49.43-91.41,61-136.33a362,362,0,0,0,9.52-130.68c-6.59-59.05-27.67-118.17-64-179.11h-4.67c91.58,152.16,89.42,294.87-5.22,444-11.56,18.22-23.81,36.1-35.67,53.4-37.81,55.19-73.52,107.31-91.68,173.29-23,83.55-8.87,160.66,6.09,242.29,6.76,36.85,13.74,74.95,16.87,113.4,9,110.5-51.31,167.19-131.11,229.81-17,13.37-34.25,27-50.9,40.22-77.7,61.61-158.05,125.32-244,179.2-90.22,56.59-194.67,123.13-292.6,196.69-50.83,38.18-91.76,81.58-131.83,127.72h5.3C3183.38,1755,3223.55,1712.71,3273.11,1675.48Z"/><path class="cls-2" d="M932.06,1434.35c-3-147.57,138.17-228.35,262.75-299.63,47.93-27.43,93.2-53.33,129.22-81.76,33.56-26.49,76.15-49.41,121.23-73.69,60.8-32.72,123.67-66.57,168.51-112,51-51.67,70.32-110.95,59-181.25-12.85-79.5-66.57-195.26-114.09-274.72-22.4-37.44-50.33-71.21-77.35-103.85-36.54-44.17-74.33-89.83-98.27-144.71C1360.55,111.25,1342.68,55.72,1326.38,0h-4.17c16.42,56.22,34.43,112.3,57.15,164.38,24.16,55.39,62.13,101.28,98.85,145.66,26.92,32.53,54.76,66.17,77,103.35,47.34,79.13,100.81,194.33,113.58,273.31,11.14,68.95-7.78,127.1-57.86,177.8-44.42,45-107,78.66-167.55,111.25-45.25,24.36-88,47.37-121.82,74.07-35.78,28.25-80.93,54.08-128.73,81.43-64.15,36.7-130.49,74.66-181.09,122.48-57.67,54.52-85,113.63-83.67,180.7,3.09,150.94,136.92,287.42,262.16,365.57h7.58l-2.75-1.7C1069.93,1721,935.13,1584.77,932.06,1434.35Z"/><path class="cls-2" d="M1066.7,1612c-46.29-74.88-88.84-154.63-57.14-234.09,31.62-79.27,103.73-125.77,173.47-170.75,16.18-10.43,32.91-21.22,48.58-32.11,31.43-21.84,61-45.66,89.54-68.7,44.4-35.8,90.31-72.81,143.14-102,80.34-44.39,163.4-90.29,212.89-178,28-49.7,42.29-88.32,46.21-125.22,4.2-39.64-3.61-79-24.58-123.91-43.65-93.46-101.32-183-176.28-273.61C1456.09,223.19,1404.19,122.94,1365.7,0h-4.45q10.92,35.09,23.33,67.73c35.09,92.37,80.47,172.57,134.87,238.36,74.74,90.39,132.23,179.61,175.74,272.76,39.12,83.76,33.5,148-21.49,245.47-48.93,86.73-131.5,132.35-211.34,176.47-53.14,29.36-99.19,66.49-143.72,102.4-28.51,23-58,46.77-89.31,68.53-15.62,10.85-32.32,21.62-48.46,32-70.27,45.31-142.93,92.17-175,172.63-14.94,37.44-14.93,78,0,123.85,13.31,40.85,36.62,80.17,57.43,113.82,41.33,66.84,111.79,129.23,209.88,186h7.69C1194.67,1750.92,1114.06,1688.54,1066.7,1612Z"/><path class="cls-2" d="M3270,1606.75c31.66-19.31,64.39-39.27,95.82-62.64,38.3-28.49,75.85-58.89,112.16-88.28,48.05-38.91,97.74-79.13,149.78-115.41,15.41-10.74,31-21.27,47.51-32.42,67.3-45.46,136.9-92.48,189-150.93,31-34.78,47.91-78.94,51.7-135,3.36-49.82-3.71-104.38-10.56-157.14-9.89-76.27-20.12-155.14.52-222.34,20.09-65.38,61.24-123.24,101-179.2,32-45,65.13-91.56,86.25-141,23.69-55.53,29.61-109.32,18.08-164.44C4100.13,104.59,4076.39,51.4,4045,0h-4.66c31.84,51.67,55.87,105.15,67.08,158.73,25.31,121-37.35,209.09-103.68,302.35-40,56.21-81.33,114.33-101.6,180.33-20.9,68-10.61,147.34-.66,224,14.2,109.49,27.61,212.9-40.16,289-51.75,58.08-121.14,104.95-188.24,150.28-16.52,11.15-32.12,21.69-47.56,32.45-52.16,36.36-101.9,76.63-150,115.58-36.27,29.37-73.79,59.74-112,88.18-31.28,23.26-63.93,43.17-95.51,62.43-58.86,35.9-114.46,69.81-162.72,123.84-20.45,22.9-38.73,48-56.23,72.83h4.89c16.94-24,34.64-48.13,54.33-70.17C3156.05,1676.25,3211.4,1642.49,3270,1606.75Z"/><path class="cls-2" d="M3103.54,1616.27c34.74-42.06,80.4-67.77,124.55-92.63,36.43-20.52,74.1-41.73,106.29-72.19l11.8-11.18c74.25-70.37,158.4-150.12,244.83-200.54l9.46-5.52c76.65-44.67,142.84-83.25,187.69-136.14a253,253,0,0,0,50.59-93.23c11.21-37.73,15.22-80.57,12.25-131-1.95-32.93-9.54-63.08-16.88-92.24-14.28-56.69-27.76-110.24,7.59-168.6l3.68-6.08c45.29-74.76,101.65-167.81,141.38-244,47.79-91.68,61.59-174.67,42.17-253.7C4020.05,73,4004.17,37.06,3980.49,0h-5c76,117.82,76.72,228.7,7.73,361.08-39.68,76.11-96,169.09-141.26,243.81l-3.68,6.07c-36.22,59.8-22.53,114.13-8.05,171.66,7.3,29,14.84,58.94,16.76,91.5,12.09,204.74-91.6,265.17-248.54,356.63l-9.47,5.52c-86.83,50.65-171.16,130.58-245.56,201.09l-11.81,11.19c-31.82,30.12-69.27,51.21-105.49,71.6-44.47,25-90.46,50.94-125.67,93.58-21.63,26.18-42.9,55-63.47,82.9-26.08,35.37-52.41,71-80.71,103.37h5.33c27.5-31.73,53.16-66.51,78.6-101C3060.75,1671.17,3082,1642.37,3103.54,1616.27Z"/><path class="cls-2" d="M1174.88,1646.17c-71.71-70.84-98.77-144.81-80.44-219.86,16.64-68.06,76.63-118.7,129.56-163.38,11.83-10,23-19.41,33.69-29,25.36-22.68,48.37-47.71,70.62-71.91,35.7-38.83,72.62-79,119.22-109,18.49-11.93,38-23.56,58.76-35.88,59-35.08,125.83-74.85,176.57-128.93,58.16-62,87-134,88.14-220.17.8-60.29-35.52-123.27-67.56-178.84-8.5-14.73-16.53-28.65-23.67-42.13-53.34-100.6-120.37-195.56-166.15-258.24C1479,141.47,1440.62,73.92,1412,0h-4.33c26,68.05,62.3,135.83,102.72,191.18,45.71,62.58,112.63,157.38,165.85,257.76,7.18,13.54,15.23,27.49,23.74,42.25,31.79,55.12,67.82,117.6,67,176.78-2.54,190.94-140.79,273.17-262.76,345.72-20.74,12.34-40.33,24-58.88,36-47,30.34-84.12,70.68-120,109.69-22.19,24.13-45.14,49.09-70.35,71.64-10.64,9.53-21.8,18.94-33.6,28.91C1168,1305,1107.5,1356,1090.56,1425.37c-10,41.07-6.84,82.06,9.5,121.83,14.08,34.27,38.31,68.52,72,101.82,59.94,59.21,138.81,105.74,208,143.44q7,3.81,14.34,7.54h9c-7.35-3.61-14.51-7.29-21.42-11C1313,1751.38,1234.47,1705,1174.88,1646.17Z"/><path class="cls-2" d="M2603.32,40c24.51-8.45,48.08-22.12,69.16-40h-6.15c-49.73,40.67-109.39,55.47-163.78,39.59-27.7-8.08-53.66-21.89-78.17-39.59h-6.94c28,20.85,55.8,35.21,84,43.43C2534,52.93,2569.21,51.73,2603.32,40Z"/><path class="cls-2" d="M1248.57,1611.76c-104.38-132.11,16.4-274,113.45-388,21-24.74,40.94-48.1,57-69.66,36.92-49.46,82.26-79.42,130.27-111.13,15.71-10.39,32-21.12,48.26-32.77,60.24-43.08,107.7-95.63,158.68-175.72l2.26-3.55c34.94-54.85,74.53-117,63.37-187.1-9.68-60.71-50.81-129.93-87.11-191-10.14-17.07-19.73-33.19-28.09-48.25-23.81-42.86-52.67-83.47-80.57-122.75-24.43-34.39-49.7-70-71.4-106.8-33.66-57.14-57.7-115.7-72-175h-4.21q5.3,22.31,12.38,44.29c14.36,44.47,34.65,89.12,60.33,132.72,21.79,37,47.11,72.62,71.59,107.09,27.84,39.19,56.63,79.71,80.33,122.37,8.4,15.11,18,31.26,28.15,48.35,36.11,60.77,77,129.64,86.6,189.59,10.92,68.59-28.24,130.07-62.79,184.32l-2.27,3.55c-50.69,79.64-97.83,131.86-157.63,174.61-16.23,11.61-32.45,22.33-48.14,32.69-48.3,31.91-93.92,62.05-131.26,112.08-16,21.45-35.87,44.77-56.88,69.46-48.42,56.89-103.31,121.38-132.87,188.4-34.34,77.83-28,144.8,19.33,204.72,37.77,47.81,87,86.51,150.59,118.33,56.06,28.06,117.14,48.18,176.5,67.43h13.15q-3-.93-6.05-1.9C1458.12,1758.71,1332.49,1718,1248.57,1611.76Z"/><path class="cls-2" d="M2595.18,110.46q6.14,0,12.31-.33c19.3-1,40,2,60,4.91,24.15,3.53,49.12,7.18,72.48,3.94,45.17-6.26,82.9-46.84,89.72-96.49A117,117,0,0,0,2830.59,0h-4a112,112,0,0,1-.82,21.94c-6.58,47.91-42.88,87.06-86.3,93.08-22.8,3.16-47.49-.45-71.36-3.94-20.21-3-41.12-6-60.82-5-57.73,3.12-113-16-168.91-58.45A557.9,557.9,0,0,1,2383.76,0h-5.67a564.52,564.52,0,0,0,57.85,50.86C2488.69,90.89,2540.91,110.46,2595.18,110.46Z"/><path class="cls-2" d="M2939.85,1659.18c9-12.3,17.45-23.92,26.09-35.24,63.51-83.22,150.77-140.69,235.16-196.27,55.79-36.74,90.27-78.53,126.77-122.76,55.25-67,112.39-136.22,251-201.1,73.73-34.52,129.65-107.86,149.56-196.19,9.43-41.81,3.46-83.31-2.31-123.45-4.91-34.11-10-69.39-5.4-104.33,10.43-79.58,59.6-142.91,111.65-210,52.6-67.75,107-137.82,117.42-226.07,8.95-75.8-23.06-156.4-95.14-239.55q-1.85-2.13-3.74-4.26h-5.34c2,2.3,4.07,4.59,6.06,6.88,71.31,82.27,103,161.83,94.18,236.46-10.29,87.15-64.33,156.76-116.6,224.09C3779.1,532,3727.31,598.66,3716.73,679.31c-4.65,35.49.46,71.05,5.41,105.43,5.72,39.78,11.63,80.91,2.37,122-19.65,87.13-74.73,159.45-147.36,193.45-62.34,29.19-114,62.17-158.05,100.82-38.87,34.15-67.06,68.31-94.32,101.35-36.3,44-70.59,85.56-125.88,122-84.67,55.76-172.22,113.42-236.14,197.18-8.67,11.36-17.16,23-26.15,35.31-38,52.13-80.38,110.15-137.34,143.18h7.79C2861.81,1766.11,2902.85,1709.88,2939.85,1659.18Z"/><path class="cls-2" d="M2345.55,1800h18.16c47.46-10.12,95.28-15,146.22-7.59,13,1.88,26,4.55,39,7.59h16.74c-18.17-4.64-36.64-8.88-55.13-11.55C2452.74,1780.1,2399.11,1787.24,2345.55,1800Z"/><path class="cls-2" d="M2521.29,164.62c77.51,34.68,153.26,49.26,225.18,43.32,74.81-6.17,145.67-34.59,210.62-84.48l7.71-5.9c26.12-20,61.88-47.26,90.07-78.24Q3073.32,19,3084.22,0h-4.62a227.11,227.11,0,0,1-27.69,36.63c-27.95,30.71-63.54,57.9-89.53,77.75q-4,3.08-7.72,5.91C2828.79,217,2679.51,231,2522.93,161c-68.59-30.68-132-92.89-190.35-161h-5.27C2386.62,69.45,2451.14,133.24,2521.29,164.62Z"/><path class="cls-2" d="M2525.71,1744.12l3.08.26c99,8.24,177.21,14.74,263.69-47.07,82.12-58.7,154.77-135.41,225-209.6l6.94-7.33c43.52-45.93,86-95.13,127-142.7,88.36-102.4,179.72-208.28,288.57-289.9,62.39-46.79,106.81-85.21,135.42-132.08,31.1-51,40.54-109.07,29.69-182.91-17.44-118.67,40.74-183.16,102.33-251.44,34.53-38.27,70.23-77.85,96.31-129.45,21.51-42.57,34.05-83.48,37.29-121.61a222.53,222.53,0,0,0-15.47-103.82C3807.46,81.93,3774.17,40.22,3724.54,0h-6.49c125.68,100.25,151.62,212.66,82.16,350.1-25.83,51.12-61.35,90.49-95.7,128.57-62.24,69-121,134.17-103.32,254.7,23.22,158-49.69,225.82-163.56,311.21-109.18,81.88-200.69,187.93-289.19,290.48-41,47.54-83.44,96.7-126.89,142.56l-7,7.34c-70.13,74-142.64,150.62-224.45,209.09-85.28,61-162.84,54.51-261,46.34l-3.08-.26c-92.39-7.68-177.15,16.18-259.13,39.25-25.34,7.13-50.93,14.33-76.89,20.62h16.52c20.69-5.3,41.15-11.06,61.46-16.77C2349.63,1760.25,2434,1736.5,2525.71,1744.12Z"/><path class="cls-2" d="M1406.24,1629.69c-78.72-73.76-98-149.57-57.17-225.32,36.76-68.27,89.3-149.64,140.55-217.68,31-41.21,72.93-72,113.43-101.7,22.87-16.8,46.53-34.17,68.06-53.27,48.5-43,78.84-95.44,111-150.93,8.21-14.17,16.69-28.83,25.44-43.19,23-37.71,41.47-69.29,53.11-103.54,13.31-39.17,15.28-75.71,6.19-115-13.86-59.95-49.27-117-83.51-172.12-10.11-16.28-19.66-31.66-28.62-47-24.59-42.21-51.84-81.37-78.2-119.23C1615.73,193.39,1558,110.38,1538,0h-4.07c20,111.54,78.13,195.1,139.27,283,26.31,37.8,53.51,76.9,78,119,9,15.42,18.55,30.83,28.68,47.13,34.07,54.87,69.3,111.61,83,170.91,19.95,86.24-18.31,149-58.82,215.56-8.77,14.4-17.26,29.07-25.48,43.27-31.95,55.19-62.12,107.33-110.14,149.93-21.4,19-45,36.3-67.78,53-40.73,29.91-82.86,60.84-114.26,102.53-51.36,68.18-104,149.75-140.87,218.18-22.35,41.52-27.23,83.37-14.49,124.41,11,35.4,35.36,71,72.44,105.72a1.29,1.29,0,0,0,.17.16c141.63,113.29,298.92,141,465.39,167.24h25.79l-7.57-1.19C1714.87,1771.79,1552,1746.25,1406.24,1629.69Z"/><path class="cls-2" d="M2399.62,112.45c47.53,45.43,103.17,83.78,160.9,110.89C2622,252.23,2682,266.84,2739,266.84c3.8,0,7.59-.07,11.36-.19,120.4-4.16,281.87-79.8,368.42-150.54q10.42-8.52,20.53-16.87c48.47-39.93,91.55-75.43,140.55-99.24h-8.63l-1.57.8c-46.35,24-88.39,58.68-132.89,95.36q-10.12,8.32-20.52,16.86c-86,70.31-246.47,145.5-366,149.63-133.5,4.61-267.23-76.07-347.82-153.1C2370.17,78.77,2338.33,40.88,2305.44,0h-5.13C2334,41.94,2366.58,80.87,2399.62,112.45Z"/><path class="cls-2" d="M1739.88,322.94c65.1,88.62,138.89,189.06,153,297.35,12,92.29-33.07,174-76.69,253-7.65,13.86-15.56,28.2-22.92,42.2-38.32,72.83-70.35,122.55-129.81,176.6-38.17,34.7-77.87,73.18-109.73,119.45-33.7,49-74.56,113.91-91.52,182.42-8.31,33.6-10.16,65.82-5.49,95.78,5.19,33.34,18.64,65.18,40,94.64l.12.16c50.3,56.76,112.19,97.55,189.2,124.71,62.77,22.13,136.38,35.12,225,39.7l9.88.51c39,2,78.75,4.1,118.25,4.1,26.11,0,52.11-.91,77.67-3.33,54.19-5.13,105.1-21.55,154.34-37.43,26.38-8.51,53.67-17.31,81.33-24.35,62.59-16,124.07-11.36,183.53-6.93,42.74,3.18,86.94,6.48,129.87,1.69,48.11-5.35,90.11-20.55,128.4-46.45,124.18-84,215.69-190.26,312.58-302.75l6.65-7.71c39.91-46.33,79.93-99.88,118.64-151.67,49.22-65.84,100.11-133.93,152.53-189.82,7.84-8.36,16.09-16.38,24.07-24.14,27.09-26.35,52.69-51.24,64.91-89.49,11.51-36,8.26-73.77,5.11-110.3-2-22.86-4-46.5-2.36-69.33,6.87-95.26,81.52-162.25,153.7-227,48.41-43.45,94.13-84.48,121.08-133.45,14.55-26.43,22.14-52.59,23.21-80,1.2-30.63-5.72-62-21.16-96C3728.18,100,3681.89,52.5,3619.4,17.86,3607.66,11.34,3595.48,5.39,3583,0h-10.6c74.29,29.9,143.07,81.72,177.2,156.78,28.69,63.1,28.09,117.87-1.91,172.37-26.62,48.37-72.1,89.19-120.25,132.4-72.77,65.31-148,132.85-155,229.72-1.67,23.14.38,47,2.36,70,3.12,36.14,6.34,73.5-4.93,108.73-11.92,37.3-37.16,61.85-63.89,87.84-8,7.8-16.29,15.85-24.2,24.28-52.57,56.05-103.53,124.23-152.81,190.16-38.67,51.73-78.65,105.22-118.48,151.44l-6.64,7.72c-96.71,112.28-188.05,218.34-311.8,302-84.07,56.87-167.45,50.66-255.72,44.08-59.78-4.46-121.6-9.07-184.82,7-27.78,7.08-55.13,15.9-81.57,24.42-49,15.81-99.73,32.16-153.49,37.26-63.9,6.06-130.72,2.58-195.34-.78l-9.87-.52c-193.42-10-320.29-60.26-411.37-163-88.61-122.54-20.84-254.87,57.16-368.15,31.63-45.94,71.14-84.23,109.13-118.76,59.89-54.45,92.13-104.46,130.66-177.7,7.34-14,15.24-28.28,22.89-42.13,43.92-79.57,89.35-161.86,77.15-255.46-14.24-109.31-88.36-210.19-153.75-299.2-13.59-18.5-26.43-36-38.69-53.39C1645.48,183.44,1592.13,99.36,1579.85,0h-4c12.23,100.4,66,185.13,125.33,269.48C1713.43,286.94,1726.27,304.42,1739.88,322.94Z"/><path class="cls-2" d="M1796.16,345.17,1810.75,365c93.46,127.48,127.65,245.68,101.61,351.31-24.89,101-90.6,237.81-159.79,332.75-19.91,27.31-41.34,52.4-62.07,76.66-62.18,72.79-120.91,141.55-124.55,254-1.64,50.82,6.94,104,24.16,149.7,19.74,52.4,50.38,94.22,88.61,120.95,60.68,42.43,150.12,53.75,237.93,53.75,58.84,0,117-5.09,165.18-9.31l7.72-.68c60.37-5.26,118.9-19.1,175.5-32.48,83.59-19.76,170-40.2,261-31.89,81.93,7.48,153.48-1.89,218.75-28.65,60.56-24.83,118.9-65.4,183.61-127.67,102.19-98.35,192.64-209.63,284.64-350.2,15.6-23.84,33.72-48.57,52.9-74.76,60.67-82.8,129.43-176.66,136.4-271.55,2-27.5,1.44-54.49.87-80.59-1.67-77.06-3.24-149.85,65.38-211.5,21.33-19.16,46.52-35.91,73.2-53.64,73-48.54,148.53-98.73,139.22-200.57-3.39-37.08-24.49-72.19-61-101.54-30.76-24.71-72.68-45.33-118.06-58.06C3459,59,3416.58,54.72,3382.53,59c-53.92,6.83-93.32,35.58-135,66-16.25,11.85-33,24.11-50.65,34.83-51.92,31.6-111.08,55.88-168.3,79.37-10.61,4.35-21.58,8.85-32.2,13.28-121.26,50.56-254.84,60.24-366.49,26.56C2483.21,234.87,2380,116.28,2280.16,1.59L2278.78,0h-5.3l3.67,4.22c50,57.49,101.78,116.94,158.43,166.4,63.64,55.57,126.81,92.31,193.12,112.31,58.21,17.56,121.08,23.68,186.85,18.19,61.07-5.1,124.12-20.62,182.33-44.89,10.61-4.42,21.57-8.92,32.17-13.27,57.37-23.55,116.69-47.89,168.87-79.66,17.75-10.8,34.62-23.11,50.93-35C3291.13,98.15,3330.13,69.69,3383,63c62.12-7.87,165.39,13.72,234.44,69.21C3653.14,160.86,3673.72,195,3677,231c9.09,99.47-65.41,149-137.46,196.88-25.62,17-52.11,34.64-73.66,54-70,62.88-68.39,136.56-66.69,214.57.56,26,1.14,52.89-.87,80.21-6.89,93.74-75.29,187.11-135.64,269.48-19.21,26.23-37.36,51-53,74.93-91.83,140.32-182.09,251.37-284.07,349.51-130.9,126-242.83,169.5-399.22,155.22-91.59-8.36-178.35,12.15-262.26,32-56.46,13.35-114.85,27.15-174.93,32.39l-7.72.68c-119.59,10.46-300.31,26.29-400.47-43.74-86.4-60.41-113.82-181.71-111.06-267.24,3.59-111,61.88-179.27,123.59-251.51,20.78-24.32,42.26-49.47,62.26-76.91,69.46-95.31,135.44-232.72,160.44-334.14,26.34-106.84-8.07-226.15-102.26-354.63q-7.2-9.82-14.6-19.86C1723.64,239.94,1639.1,125.09,1617.58,0h-4c8.51,49.45,27.52,101.33,57.49,157.14C1707.13,224.26,1754.43,288.5,1796.16,345.17Z"/><path class="cls-2" d="M1798.1,290c25.68,37.41,49.93,72.75,67.58,105.11,70.06,128.49,104,236.27,56.65,376.37-45.88,135.81-109.49,260.45-179.11,351-46.21,60.08-69.41,102.42-80.1,146.14-11.11,45.46-9,95.07,7.11,165.88,3.13,13.78,5.27,28.37,7.34,42.48,6.28,42.81,12.76,87.08,47.69,118,45,39.91,114.62,46.45,178.78,46.45q5.18,0,10.31-.06l3.58,0c135.32-1.34,263.13-2.6,395.27-35,58.74-14.4,120-12.6,179.22-10.86,68,2,138.36,4.06,203.69-18.91,236.14-83,421.56-370.84,490.31-490.73,7.53-13.13,15.36-26.51,23.66-40.67,47.22-80.63,100.74-172,120.4-257.2,9.08-39.36,1.36-80.46-6.1-120.21-10.22-54.38-19.87-105.74,10.42-152.14,26-39.85,70.53-64.53,113.59-88.39,51.15-28.34,104.05-57.65,124-112.45,11.75-32.35,9.41-62.55-7-89.77-13.62-22.64-37.19-42.94-68.15-58.72a286.58,286.58,0,0,0-88-27.58c-68-9.52-127.32,27.14-184.71,62.59-28.15,17.39-57.26,35.37-86.63,47.25-115.73,46.79-251.16,95.77-394.31,84.56C2536.68,317,2422.65,190.94,2301.92,57.52c-17.11-18.9-34.61-38.23-52.6-57.52h-5.47c18.87,20.17,37.2,40.42,55.1,60.21,61.89,68.39,120.35,133,190,183.2,78.34,56.5,159.15,86.29,254.34,93.75,64,5,130.33-1.22,202.78-19,68.82-16.93,136.36-42.76,193.34-65.81,29.68-12,58.94-30.07,87.23-47.55,56.79-35.07,115.5-71.34,182.06-62,55.73,7.8,124.75,36.92,153.31,84.4,15.72,26.13,18,55.18,6.63,86.33-19.41,53.4-69.32,81-122.15,110.33-43.49,24.09-88.45,49-115,89.69-31.16,47.75-20.92,102.31-11,155.07,7.39,39.34,15,80,6.14,118.58-19.52,84.57-72.88,175.68-119.95,256.07-8.3,14.17-16.14,27.55-23.68,40.7-68.53,119.5-253.29,406.38-488.17,488.95-64.63,22.72-134.59,20.67-202.25,18.68-59.49-1.74-121-3.55-180.29,11-131.68,32.27-259.27,33.53-394.35,34.86l-3.58,0c-66.13.67-140-4.23-186.4-45.38-33.83-30-40.21-73.54-46.38-115.64-2.08-14.18-4.23-28.85-7.4-42.79-29.93-131.67-15.07-195.14,72.26-308.7C1816.27,1034,1880.1,909,1926.12,772.76c47.79-141.48,13.65-250.13-56.93-379.56-17.74-32.55-42-68-67.79-105.46C1739.74,197.9,1671.86,99,1664.06,0h-3.83c2.55,32.07,11.41,66.07,26.63,102.43C1714.25,167.84,1758.8,232.74,1798.1,290Z"/><path class="cls-2" d="M1742,136.12c26.18,59,62.14,114.71,91,159.48l8.91,13.83,7,10.87c64.18,99.81,144.06,224,126.82,348.38-17.77,128.23-85.28,264.56-142.12,369-17.23,31.68-37.34,60-56.78,87.32-25.36,35.67-49.3,69.36-64.82,107.27-17.49,42.72-21.65,84.44-13.1,131.31,12.3,67.42,32.27,117.32,61,152.57a167.88,167.88,0,0,0,59.65,46.85c24.66,11.44,53.4,17.26,85.43,17.3,29.22,0,58.65.71,89.8,1.43,32.28.73,65,1.48,97.54,1.48,49.94,0,99.49-1.76,146.46-8,24.54-3.26,48.89-9.41,72.44-15.35,24.5-6.18,49.84-12.58,75.29-15.68,39.58-4.82,78.52.06,116.18,4.79,27.71,3.47,56.38,7,85.36,6.87,97.91-.68,198.95-47.64,300.31-139.58,72.77-66,145.51-155,216.21-264.39,35.33-54.68,62.73-115.44,89.23-174.21,15.52-34.42,31.56-70,49-103.83q2.3-4.46,4.59-8.88c22.54-43.54,43.83-84.65,42.86-135.16-.72-37.08-15.45-68.95-29.7-99.77-8.14-17.62-16.56-35.83-22.36-54.94-12.22-40.28-8.23-71,12.58-96.63,18.66-23,48.34-39.05,79.77-56.06,19.84-10.73,40.35-21.83,58.72-35.13,23.4-16.95,52.93-39.8,73.67-66.28,25.7-32.82,31.23-63.17,16.45-90.2-10.43-19.08-25.11-31.49-43.63-36.87-49.35-14.33-116.65,22.9-165.8,50.08-14.42,8-26.87,14.86-37,19.45-133.82,60.57-242.47,91.7-341.95,98-232.47,14.67-404.78-61.57-576.14-254.94l-5.65-6.38c-27.8-31.38-58.67-66.23-92.18-100.09h-5.63c34.52,34.67,66.29,70.54,94.81,102.74l5.66,6.39c86,97.1,167.78,161.55,257.2,202.83,80.18,37,168.08,55.21,267.4,55.21q26.82,0,54.78-1.77c100-6.31,209.08-37.55,343.35-98.33,10.28-4.65,22.79-11.57,37.29-19.59,48.53-26.84,115-63.6,162.74-49.74,17.46,5.07,31.34,16.83,41.24,34.95,30.52,55.8-36.16,113.09-89,151.32-18.16,13.14-38.55,24.18-58.27,34.85-62.74,33.95-122,66-94.28,157.37,5.88,19.37,14.36,37.72,22.56,55.46,14.72,31.85,28.63,61.93,29.33,98.17.95,49.49-20.11,90.17-42.41,133.24l-4.59,8.89c-17.46,33.92-33.53,69.55-49.07,104-26.44,58.64-53.77,119.26-88.94,173.69-70.51,109.13-143,197.82-215.54,263.59-100.61,91.26-200.75,137.88-297.64,138.55-28.72.19-57.26-3.38-84.84-6.84-37.9-4.75-77.09-9.67-117.16-4.79-25.7,3.13-51.17,9.56-75.79,15.77-23.44,5.92-47.67,12-72,15.27-77.28,10.28-161.72,8.35-243.39,6.49-31.17-.71-60.62-1.39-89.88-1.43-111.4-.16-175.64-68-202.18-213.44-18.42-101,28-166.33,77.24-235.54,19.51-27.45,39.69-55.84,57-87.72,23.88-43.9,58.93-110.25,87.4-179.38,29.1-70.67,47.15-133.14,55.17-191,7.77-56.09-2.87-116.42-32.52-184.46-25.79-59.14-62.51-116.25-94.9-166.63l-7-10.87q-4.27-6.67-8.91-13.84c-28.82-44.65-64.68-100.23-90.73-158.93-23-51.86-34-96.25-33.07-134.5h-4C1707.72,38.84,1718.77,83.76,1742,136.12Z"/><path class="cls-2" d="M1757.42,90.89c19.8,63.07,62.52,128.18,96.83,180.5,12,18.35,23.41,35.68,32.48,50.91,6.46,10.84,13.09,21.73,20.11,33.27,43.7,71.8,93.23,153.19,106.36,233.48,11.4,69.72-16.72,150.29-46.49,226.84-9.6,24.68-19.48,52-29.93,80.82-28.93,79.9-61.73,170.46-99.5,234.27-11,18.49-22.83,34.52-34.31,50-29.76,40.14-55.46,74.8-54,135.06,1.41,57,12.86,103.22,34,137.27,25.38,40.82,64.3,63.13,115.68,66.31,25.19,1.56,50.53,3.43,77.36,5.41,67,4.94,135.89,10,201.76,10q24,0,47.35-1c42.56-1.84,76.3-9.48,108.92-16.87,48.13-10.91,93.59-21.2,158.54-9.25,117.73,21.67,220-1.26,303.82-68.13,85.28-68,157.15-141,213.62-217.16,65.28-88,108.63-178.55,128.87-269.24,10.09-45.2,32.78-81.81,54.73-117.21,29.72-48,57.8-93.25,41.71-148-17.56-59.81-62.31-141.09-108.82-197.67-61.74-75.11-190.77-90-315.54-104.42-72.33-8.36-140.64-16.25-196.39-35C2471,302.76,2375.69,202.42,2274.76,96.19,2247,67,2218.3,36.77,2188.75,8q-4-3.94-8.39-8h-5.86c4.08,3.8,7.92,7.45,11.46,10.9,29.49,28.68,58.17,58.86,85.9,88.05,48.57,51.12,98.8,104,153.67,148.82C2487,298,2548.45,333,2613.36,354.9c56.15,18.9,124.67,26.81,197.21,35.19,124,14.32,252.19,29.13,312.91,103,46.2,56.21,90.65,136.91,108.08,196.26,15.58,53.06-10.77,95.56-41.28,144.78-22.12,35.69-45,72.59-55.23,118.44-47.62,213.36-211.76,381-341.08,484.16-82.93,66.11-184.07,88.76-300.61,67.31-65.75-12.1-111.6-1.71-160.14,9.28-32.45,7.36-66,15-108.22,16.78-79.45,3.44-165.46-2.91-248.63-9-26.85-2-52.2-3.85-77.42-5.41-116.72-7.23-143.79-112.58-146-199.69-1.46-58.88,23.86-93,53.18-132.58,11.55-15.57,23.49-31.68,34.54-50.35,38-64.14,70.83-154.88,99.82-234.95,10.45-28.85,20.31-56.1,29.9-80.73,30-77.07,58.27-158.22,46.71-228.93-13.25-81.07-63-162.81-106.89-234.92-7-11.53-13.64-22.41-20.09-33.24-9.12-15.31-20.51-32.67-32.57-51.05-34.18-52.11-76.73-117-96.37-179.5-10.5-33.44-13.58-63.23-9.23-89.7h-4C1743.65,27.08,1746.72,56.83,1757.42,90.89Z"/><path class="cls-2" d="M1833.66,130.38c11.55,47,34.38,100,61.07,141.92,8.28,13,16.61,25.85,24.66,38.28,82.35,127.1,153.47,236.86,108.69,400-45.92,167.26-112,337.52-164.39,467.16-24.84,61.43-47.61,140-2.9,202.93,36,50.73,99.79,60.81,156,69.7,10,1.58,19.43,3.07,28.78,4.77,122.65,22.72,198.85,24.66,313.59,8,47.25-6.86,92.2.55,135.67,7.72,31.27,5.16,63.42,10.46,96.47,10.46,7.18,0,14.39-.25,21.65-.81,162.55-12.42,339.79-223.23,413.33-353.2,28.72-50.76,47-106.7,64.75-160.8,6.71-20.49,13.65-41.69,21-62.28,2.6-7.23,5.25-14.42,7.82-21.38,24.76-67.15,46.15-125.15,16.51-197.41-28.79-70.18-77.19-125.43-148-168.9-68.79-42.23-149.29-67-211.73-83.9-171.87-46.45-314.2-93.69-450.9-241-9.6-10.35-19.08-20.75-29.12-31.77C2245.5,103.59,2190.34,43.05,2126.13,0h-7.29c66,43,122.54,105,174.92,162.51,10,11,19.53,21.44,29.13,31.8,62.72,67.59,128.53,117.2,207.12,156.11,72.6,35.94,150.72,60.4,245.67,86.06,148.55,40.15,294.63,98.28,357.05,250.46,29,70.81,7.91,128.14-16.57,194.51-2.57,7-5.22,14.16-7.82,21.41-7.43,20.64-14.37,41.86-21.09,62.39-17.65,53.91-35.91,109.66-64.43,160.07-73.14,129.25-249.16,338.88-410.15,351.18-40.23,3.08-79.34-3.37-117.17-9.61-31.46-5.18-63.68-10.5-97.09-10.5a276.93,276.93,0,0,0-39.8,2.77c-114.25,16.6-190.14,14.66-312.3-8-9.4-1.7-18.86-3.2-28.88-4.78-58.16-9.2-118.3-18.71-153.38-68.06-43.59-61.34-21.11-138.64,3.35-199.12,52.46-129.74,118.56-300.14,164.54-467.6,20.73-75.54,18.72-143.9-6.32-215.16-22.5-64-61.54-124.27-102.87-188-8-12.43-16.37-25.27-24.65-38.26-26.46-41.54-49.1-94.14-60.56-140.73-9.33-37.92-15.9-90.19,3.38-129.42h-4.44C1817.72,40.09,1824.3,92.36,1833.66,130.38Z"/><path class="cls-2" d="M2057.9,353.26c41.08,76,76.55,141.56,60.87,249.71-10.34,71.31-32.46,143.06-53.86,212.44-28.44,92.27-57.86,187.68-60.3,284-1.73,68.34,18.89,125.5,61.28,169.9,27,28.3,62.1,50.42,104.27,65.76,39.88,14.5,84.36,22.36,132.21,23.37h.24c52.74-5.33,104.58,1.82,154.71,8.75,37.59,5.19,76.27,10.53,115.15,10.53q9.77,0,19.54-.48c94.37-4.71,162.12-72.42,223.41-141.38,69.66-78.34,119.72-149.26,153.07-216.81,20.86-42.25,35.6-84.17,43.83-124.61,9.14-45,10.54-89.64,4.16-132.75-24.92-168.28-182.87-227-322.23-278.79l-3.22-1.19c-16.28-6.06-33-12.05-49.22-17.85-73.23-26.22-148.95-53.32-214.1-96.89-42.39-28.35-81-63.22-118.27-96.94-27.4-24.76-55.73-50.37-85.4-73.26-4.77-3.68-10-7.79-15.44-12.15-48.36-38.42-121.45-96.47-180.94-69.5-52,23.54-41.69,74.7-24.81,121.64C2018.67,280.7,2038.61,317.59,2057.9,353.26Zm-64.64-184.4c1.6-23.47,13.4-39.87,36-50.14,57.27-26,129.2,31.18,176.8,69,5.5,4.37,10.69,8.49,15.49,12.19,29.55,22.79,57.82,48.34,85.16,73.06,37.41,33.82,76.09,68.79,118.72,97.29,65.57,43.85,141.52,71,215,97.34,16.18,5.79,32.92,11.78,49.18,17.83l3.22,1.19C2831.17,538,2988,596.3,3012.52,762.23c28,188.92-100.79,359.25-200.09,470.93-60.73,68.32-127.79,135.41-220.62,140-45.06,2.25-90.24-4-133.95-10-38.05-5.25-77.09-10.64-116.85-10.64a387.2,387.2,0,0,0-38.68,1.86c-98.5-2.09-181.44-33.3-233.54-87.88-41.63-43.6-61.88-99.8-60.18-167,2.42-95.74,31.76-190.88,60.13-282.89,21.43-69.53,43.6-141.43,54-213.05,7.25-50,4.21-94.21-9.55-139.13-12.25-40-31.44-75.48-51.76-113-19.22-35.54-39.09-72.3-54.81-116C1999.61,215.9,1991.77,190.75,1993.26,168.86Z"/><path class="cls-2" d="M1993.15,333.34c91.45,136.84,107.66,247.2,59.81,407.21-35.09,117.33-65.41,236.35-94.74,351.46-8.73,34.26-17.75,69.68-26.81,104.68,0,.08,0,.17-.05.25-6.4,49.71,8,93.16,42.84,129.13,42.73,44.14,106.55,67,152.57,78.48,55.34,13.75,116.05,18.86,166.57,14,79.44-7.61,151.28-9.6,243.69,5.47a316,316,0,0,0,51,4.36,240.38,240.38,0,0,0,64.53-8.49c34.93-9.67,68.24-27.88,101.84-55.69,73-60.42,152.1-151.15,211.61-242.72,52.28-80.43,115.2-201.08,118.08-319.12,2.08-85.13-27.42-156.21-87.68-211.25-81.64-74.58-195.57-110.39-305.74-145-42.56-13.38-82.75-26-120.83-40.7-108.37-41.81-182.78-113.88-261.57-190.19-26.52-25.68-54-52.24-83-77.84C2179.4,96.9,2041-3.53,1952.9,17.57c-28.42,6.81-49,25.82-61.18,56.5-29.41,74.13,34,163.65,80.36,229C1979.72,313.87,1987,324.06,1993.15,333.34ZM1895.44,75.55c11.66-29.4,31.31-47.6,58.39-54.09,36.4-8.72,87.62,3.7,148.13,35.94,49.58,26.4,96,61.2,120.71,83,29,25.54,56.36,52.06,82.84,77.72,79.09,76.59,153.8,148.94,262.92,191,38.2,14.73,78.45,27.39,121.07,40.78,109.76,34.51,223.25,70.18,304.24,144.16,59.37,54.23,88.43,124.28,86.38,208.21-5.21,213.51-204.1,456.09-328.24,558.85-65.54,54.24-131.6,72.43-214.2,59a833.12,833.12,0,0,0-136.58-11.35c-36.28,0-71.41,2.32-108.14,5.84-100.93,9.68-245.94-19-315.89-91.29-33.9-35-48-77.32-41.75-125.72,9-35,18.06-70.35,26.77-104.57,29.32-115.07,59.64-234.06,94.7-351.31,24.38-81.54,31.58-148.87,22.65-211.9-9.15-64.54-35.51-127.67-83-198.67-6.23-9.33-13.47-19.54-21.13-30.35C1929.55,236.16,1866.83,147.66,1895.44,75.55Z"/><path class="cls-2" d="M2163.37,401.34c31.26,97.8.56,203.18-29.14,305.08-12.35,42.39-24,82.42-31.44,121.89-2.41,12.8-5,26-7.55,38.73-10.87,54.82-22.12,111.5-23.35,166.9-1,44.19,6.28,78.14,23.58,110.09,16.93,31.25,43.39,59.32,71.31,87.71,60.19,61.2,165,68.17,257.44,74.32,33.22,2.21,64.59,4.29,92.42,8.67a279.2,279.2,0,0,0,43.54,3.49c51.31,0,99.58-15.08,146.5-45.63,46.38-30.19,90.23-74,142.19-142.15,43.42-56.92,75.72-113.87,96-169.28,24.92-68,31-132.46,18.22-191.52C2949,704.5,2913,650,2853.12,602.92c-54.59-42.9-121.23-73.21-179.22-97.21-155.05-64.17-275.81-121.18-398.54-207-3-2.1-6.63-4.77-10.83-7.87-34-25-97.26-71.62-129.34-41-29.19,27.83-3.51,82.11,15.24,121.74C2156.07,383.43,2160.93,393.72,2163.37,401.34ZM2138,252.67c6.51-6.21,14.67-8.79,23.78-8.79,32.33,0,76.48,32.52,100.43,50.15,4.22,3.11,7.87,5.8,10.91,7.92,123,86.07,244,143.19,399.3,207.46,131.33,54.34,257,123.59,286.84,261.08,29.17,134.25-45.63,268.52-113.52,357.52-71.26,93.42-160.27,186.14-286.27,186.14a272.45,272.45,0,0,1-42.16-3.37c-28-4.4-59.46-6.5-92.77-8.71-91.75-6.11-195.74-13-254.86-73.13-59.47-60.47-95.81-102.24-93.74-194.91,1.23-55,12.43-111.56,23.27-166.22,2.53-12.75,5.15-25.94,7.56-38.76,7.39-39.27,19-79.22,31.35-121.51,29.86-102.48,60.74-208.45,29.11-307.42-2.52-7.87-7.44-18.27-13.13-30.32C2135.82,331.27,2110.85,278.5,2138,252.67Z"/><path class="cls-2" d="M2122.67,963.73c.83,46.18,9.35,87,26.06,124.91,18.74,42.48,47.21,80.15,87,115.14,36.61,32.18,91.15,37.6,139.26,42.39,13.83,1.37,26.9,2.67,39.36,4.53,15.7,2.33,32.07,5.57,47.91,8.71,32.93,6.53,66.65,13.21,99.92,13.21a203.86,203.86,0,0,0,40.11-3.74c50.05-10,100-38.19,148.5-83.79,49-46.11,85.06-99.25,106.65-135.71,36.87-62.26,92.2-184.39,48.49-302.87-18.67-50.63-53.08-93.71-105.17-131.69-46.42-33.85-99.67-58.75-150.23-81.36-26.74-12-53.91-24-80.19-35.56-80.12-35.4-163-72-243.22-111.53-37.31-18.37-64-22.21-81.72-11.74-26.92,15.93-29,62.57-31.18,112-1.2,27.09-2.44,55.1-7.73,79.71-9.37,43.65-22.07,88.43-34.35,131.74C2147.08,786.58,2121.12,878.12,2122.67,963.73Zm87.78-396.59c5.35-24.93,6.6-53.12,7.81-80.38,2.14-48.27,4.16-93.86,29.21-108.69,5.86-3.46,12.85-5.2,21.07-5.2,14.85,0,33.67,5.68,56.85,17.09,80.33,39.57,163.22,76.18,243.38,111.59,26.27,11.61,53.43,23.61,80.17,35.56,110.77,49.53,213.49,102.92,253.28,210.78,43.13,116.93-11.67,237.8-48.18,299.45-33.76,57-125.95,192.33-252.5,217.62-45.16,9-92.59-.38-138.46-9.47-15.88-3.15-32.31-6.41-48.1-8.75-12.56-1.87-25.67-3.17-39.55-4.55-47.52-4.73-101.37-10.09-137-41.41-163.8-143.93-114.54-317.69-62.38-501.64C2188.33,655.77,2201,610.92,2210.45,567.14Z"/><path class="cls-2" d="M2427.81,1174.83c47.51,11,92.64,21.37,135.57,21.37,4.58,0,9.15-.12,13.68-.37,49.14-2.71,93.06-21,138.22-57.57A424.77,424.77,0,0,0,2806,1035.89c25.91-41.09,43.13-85,49.81-127,8-50.19,3.09-97.29-14.54-140-15.5-37.55-41.46-73-77.14-105.47-64.78-58.89-152.84-101-238.35-137.7l-1.42-.61c-41.3-17.73-84-36.07-125.44-39.86-47.64-4.36-84.84,12-113.73,50-48.53,63.8-71.51,163.18-87.59,252-22.1,122-9.56,217.25,37.28,283C2274.57,1125.89,2339.47,1161.1,2427.81,1174.83ZM2201.55,787.88c16-88.35,38.83-187.17,86.84-250.29,27.58-36.26,60.64-49,95.86-49,45,0,93.44,20.82,138.55,40.19l1.42.61c85.19,36.58,172.89,78.49,237.24,137,75.77,68.88,105.35,148,90.42,241.88-13.06,82.12-65.07,167-139.12,226.93-53,42.92-100.35,57.12-150,57.12-41.56,0-84.72-10-134.13-21.36l-.14,0c-87.27-13.55-151.31-48.22-190.34-103C2192,1003,2179.66,908.8,2201.55,787.88Z"/><path class="cls-2" d="M2413.49,1092.9c9.09,2.95,18.22,6,27.05,9,41.87,14.22,82.32,28,123.47,28,27.26,0,54.82-6,83.27-22,33.9-19,65.09-47.33,90.2-82s42.31-73.14,49.72-111.22c15.17-78-7.55-149.88-67.52-213.74-58.61-62.4-139.68-103-197.38-126.09-61.19-24.47-113.68-25.08-156-1.8-27.36,15-50.55,40.14-68.92,74.6-16.6,31.12-29.32,69.93-37.82,115.33-10.28,54.94-17.32,134.9,7.53,203.84C2291.4,1034.33,2340.66,1076.74,2413.49,1092.9Zm-150-329.15c17.68-94.49,53.9-159.21,104.72-187.15,20-11,42.44-16.52,67.07-16.52,26.09,0,54.67,6.18,85.54,18.53,57.32,22.93,137.85,63.24,196,125.11,59,62.86,81.43,133.6,66.51,210.23-14.79,76-70.23,152.61-137.94,190.51-27.72,15.51-54.65,21.4-81.36,21.4-40.6,0-80.68-13.61-122.14-27.7-8.87-3-18-6.13-27.2-9.09l-.18,0c-71.46-15.83-119.78-57.39-143.61-123.51C2246.29,897.41,2253.28,818.21,2263.48,763.75Z"/><path class="cls-2" d="M2417,1030.25c25.51,16.84,53.32,29.63,80.42,37a201.13,201.13,0,0,0,52.64,7.46,154.35,154.35,0,0,0,29.06-2.68c49.42-9.47,93-41.3,122.63-89.63,32.13-52.37,42.11-115.58,26.67-169.09-13.74-47.65-54.47-101.24-109-143.36-56.56-43.71-117.76-67.68-167.89-65.78-40.16,1.53-73.07,18.68-97.79,51-28.53,37.24-39.5,86.12-43.69,120.56-5.12,42.1-3.13,87.66,5.44,125C2326.09,946.88,2364,995.31,2417,1030.25Zm-60-372.68c24-31.3,55.86-47.93,94.78-49.41,1.81-.07,3.64-.1,5.48-.1,48.17,0,106,23.49,159.8,65.05s94.05,94.44,107.57,141.3c15.13,52.44,5.32,114.46-26.24,165.89-29.06,47.36-71.67,78.54-120,87.79-98.6,18.88-236.53-70.76-258.93-168.28C2302.42,825.93,2309.86,719,2356.9,657.57Z"/><path class="cls-2" d="M2394,927.78a197.32,197.32,0,0,0,67.18,60.9c26.87,14.91,55.65,22.78,83.29,22.78h.64c21.13-.1,40.79-4.77,58.45-13.88,19-9.84,35.27-24.64,48.22-44,24.66-36.87,33.41-78.83,25.31-121.35-7.5-39.35-29.58-77.66-62.17-107.89-18.78-17.42-85.31-73.78-153-67.91-29.71,2.58-54.78,17-74.49,43-22.82,30-34.08,70.77-31.71,114.72C2357.85,854.92,2371.82,896.34,2394,927.78Zm-3.43-226c19-25,43.11-39,71.65-41.43,3.23-.28,6.45-.41,9.67-.41,62.7,0,122.74,51,140.31,67.27,68.71,63.73,83.28,153.79,36.26,224.09-30.86,46.14-73.25,56-103.37,56.12h-.63c-55.49,0-113.2-32.12-147.16-81.94C2355.47,866.21,2341.53,766.34,2390.55,701.82Z"/><path class="cls-2" d="M2526.44,911.44a85.15,85.15,0,0,0,18.21,2.1c21.45,0,34.3-9.83,41.66-19.19,19.57-24.9,19.81-71.59.58-111-17.47-35.81-46.24-56.33-79-56.33h-.25c-34.16.1-55.87,20-59.55,54.46-2.62,24.61,4.39,54.42,18.76,79.73C2482.2,888.19,2503.91,906.51,2526.44,911.44ZM2452.1,781.89c2-18.95,11.93-50.76,55.59-50.89h.23c31.14,0,58.6,19.7,75.37,54.09,18.6,38.12,18.55,83-.13,106.78-12.24,15.57-31.55,21-55.86,15.66-21.43-4.69-42.18-22.3-56.94-48.31C2456.39,834.6,2449.56,805.69,2452.1,781.89Z"/><path class="cls-2" d="M2520,867.51a25.18,25.18,0,0,0,12.92,3.94,21.26,21.26,0,0,0,13.69-5.29c15.06-12.6,21.48-45.3,13.22-67.3-4.91-13.08-14.48-20.14-26.89-19.86-19,.41-33.17,11.27-37.85,29C2490.06,827.22,2497,853.81,2520,867.51Zm-21-58.46c4.26-16.18,16.67-25.67,34.06-26h.62c13.17,0,19.47,9.36,22.45,17.28,7.6,20.26,1.64,51.37-12.05,62.82-6.51,5.45-13.91,5.78-22,1C2500.74,851.38,2494.31,826.79,2499,809.05Z"/><path class="cls-2" d="M2508.45,955.24a101.26,101.26,0,0,0,35.2,6.71c18.12,0,38.16-5.69,57.36-22.86,25.77-23,37.93-54.8,35.18-91.83-2.4-32.4-16.72-67.31-39.28-95.77-20.56-26-46.37-44.72-72.67-52.87-29.73-9.2-58.91-4.65-84.37,13.17-16.94,11.87-29.06,27-36,45-6.34,16.42-8.28,34.81-5.75,54.66C2405.8,871.85,2454.27,935,2508.45,955.24Zm-66.28-240.17c53.66-37.56,114.81-7.53,151.61,38.91,42.92,54.15,58.27,134.1,4.57,182.12-31.58,28.24-65.56,23.95-88.51,15.39-52.9-19.75-100.24-81.49-107.77-140.55C2398.45,782.54,2402.47,742.86,2442.17,715.07Z"/><path class="cls-2" d="M3267.63,400.77l.24-.07c45.25-13.14,107.22-31.13,134.59-72,16.81-25.12,20.43-46.87,10.21-61.25-10.82-15.2-35.58-19.51-66.22-11.51-12.77,3.34-45.84,21.3-76.92,41.78-17.65,11.62-59.5,40.59-67.08,58.45-7.15,16.87-6.85,29.84.89,38.56,7.07,8,19.22,10.9,32.31,10.9A118.65,118.65,0,0,0,3267.63,400.77Zm-61.3-8.72c-6.63-7.47-6.69-19-.19-34.35,5-11.69,29.47-32.88,65.59-56.67,30.77-20.27,63.33-38,75.73-41.25a109.38,109.38,0,0,1,27.34-3.84c15.89,0,28.14,4.71,34.61,13.8,9.19,12.93,5.54,33.07-10.28,56.71-26.55,39.68-90.23,58.17-132.38,70.41l-.24.07C3244.42,403.35,3217.24,404.33,3206.33,392.05Z"/></g></svg>